<svg width="81" height="80" viewBox="0 0 81 80" fill="none" xmlns="http://www.w3.org/2000/svg">
<path fill-rule="evenodd" clip-rule="evenodd" d="M19.316 69.9575C16.2493 60.5335 11.2893 53.7815 4.46533 49.6988C10.444 44.1842 16.436 46.1655 22.4387 55.6242C25.212 49.6322 28.4173 44.2908 32.0627 39.5815C32.5453 38.8615 33.068 38.1735 33.5827 37.4962C35.2467 35.5442 36.9933 33.7015 38.8467 31.9815C39.0253 31.8322 39.2067 31.6775 39.3747 31.5282C39.7453 31.1895 40.1187 30.8455 40.5 30.5068C45.8307 25.9202 51.9453 22.2588 58.8227 19.5575C52.0653 21.2215 45.8973 24.0135 40.316 27.8908C34.852 31.2642 29.2653 36.4268 24.7107 43.7548C18.7427 16.9868 36.0067 6.16287 76.5347 11.2722C65.78 18.6322 64.9507 26.8162 58.4067 36.5068C50.4307 48.3068 42.252 52.5948 33.892 49.3362C29.9747 55.8775 27.124 62.5335 25.348 69.3122C21.3267 69.7442 19.3133 69.9548 19.3133 69.9548L19.316 69.9575Z" stroke="#009894" stroke-width="1.5" stroke-linecap="round" stroke-linejoin="round"/>
</svg>
