<svg width="81" height="80" viewBox="0 0 81 80" fill="none" xmlns="http://www.w3.org/2000/svg">
<path d="M18.3365 27.5789C22.5978 27.5789 26.3631 30.2562 26.4005 30.2829C26.6352 30.4536 26.9098 30.5362 27.1818 30.5362C27.5685 30.5362 27.9498 30.3682 28.2112 30.0509C28.8138 29.3202 31.2032 27.6189 40.3792 27.6189C44.0218 27.6189 47.0298 27.9016 47.0592 27.9042C47.0698 27.9042 47.0778 27.9042 47.0885 27.9042C53.7978 28.4002 59.2458 31.2376 63.2778 36.3362C66.3285 40.1949 67.3898 43.9736 67.4005 44.0109C67.5605 44.6029 68.0965 44.9949 68.6858 44.9949C68.7845 44.9949 68.8832 44.9842 68.9818 44.9629C74.1152 43.8002 74.7845 39.7709 74.8565 39.1362C75.6832 34.0882 70.5045 30.5762 70.0938 30.3042C70.0938 30.3042 70.0965 30.2989 70.0992 30.2962C70.2912 30.0376 70.4085 30.0376 70.4512 30.0376C70.5338 30.0376 70.6245 30.0696 70.6698 30.0909C76.4938 34.3922 75.4218 39.2509 75.3765 39.4482C75.3712 39.4722 75.3658 39.4962 75.3605 39.5229C74.9498 41.6269 73.7125 43.3736 71.6778 44.7149C70.0778 45.7682 68.5712 46.1629 68.5578 46.1656C67.9098 46.3282 67.4805 46.9469 67.5578 47.6109C68.1152 52.4349 66.9365 56.8962 64.0512 60.8696C61.8618 63.8829 59.4618 65.4749 59.4378 65.4882C59.0592 65.7336 58.8298 66.1549 58.8298 66.6056V75.3096H50.9552L49.4112 70.6749C49.2271 70.1202 48.7072 69.7629 48.1472 69.7629C48.0405 69.7629 47.9312 69.7762 47.8218 69.8029C47.2032 69.9576 45.8645 70.1416 43.0005 70.1416C38.2912 70.1416 32.4698 69.6402 32.4111 69.6349C32.3712 69.6322 32.3338 69.6296 32.2938 69.6296C31.7605 69.6296 31.2725 69.9496 31.0645 70.4482L29.0298 75.3096H20.9498V67.5309C20.9498 66.9682 20.5978 66.4669 20.0698 66.2776C11.1125 63.0402 7.09382 58.5042 6.15782 57.3176V49.2536C7.28048 48.7016 9.25648 48.2749 10.4191 48.1176C10.7711 48.0696 11.0911 47.8829 11.3045 47.6002C11.5178 47.3176 11.6111 46.9576 11.5605 46.6056C10.6271 40.1389 17.1471 34.8482 17.2111 34.7976C17.4431 34.6136 17.6085 34.3576 17.6778 34.0696C18.0005 32.7416 17.2911 31.1762 15.5098 29.2802C15.2005 28.9522 14.8885 28.6429 14.5951 28.3682C15.7471 27.8402 16.9978 27.5736 18.3338 27.5736M31.9925 39.6109H49.6672C51.0218 39.6109 52.3152 39.0322 53.2192 38.0242C54.1231 37.0162 54.5552 35.6616 54.4058 34.3069C54.1392 31.8962 52.0645 30.0776 49.5792 30.0776H31.9045C30.5498 30.0776 29.2565 30.6562 28.3525 31.6642C27.4485 32.6722 27.0165 34.0269 27.1658 35.3816C27.4325 37.7922 29.5072 39.6136 31.9925 39.6136M19.5525 50.0482C19.7711 50.0482 19.9898 50.0349 20.2085 50.0056C22.4725 49.7202 24.3231 47.8696 24.6085 45.6056C24.7925 44.1442 24.3445 42.6749 23.3765 41.5789C22.4085 40.4802 21.0138 39.8536 19.5525 39.8536C19.3338 39.8536 19.1151 39.8669 18.8965 39.8962C16.6325 40.1816 14.7818 42.0322 14.4965 44.2962C14.3125 45.7576 14.7605 47.2269 15.7285 48.3229C16.6965 49.4216 18.0911 50.0509 19.5525 50.0509M18.3338 26.2456C16.3685 26.2456 14.2858 26.7469 12.3231 28.1629C12.3231 28.1629 16.8805 31.7282 16.3845 33.7602C16.3845 33.7602 9.18715 39.4722 10.2431 46.8029C10.2431 46.8029 6.34715 47.3309 4.82715 48.5202V57.7656C4.82715 57.7656 8.65648 63.5762 19.6191 67.5389V76.6509H29.9205L32.2991 70.9709C32.2991 70.9709 38.1791 71.4829 43.0032 71.4829C45.1152 71.4829 47.0218 71.3842 48.1472 71.1042L49.9952 76.6509H60.1658V66.6136C60.1658 66.6136 70.3365 60.0109 68.8832 47.4642C68.8832 47.4642 75.4965 45.8029 76.6698 39.7842C76.6698 39.7842 78.1578 33.9229 71.3925 28.9762C71.3925 28.9762 70.9872 28.7122 70.4512 28.7122C70.0165 28.7122 69.4965 28.8829 69.0325 29.5042C67.9925 30.8909 69.3525 31.4189 69.3525 31.4189C69.3525 31.4189 74.2778 34.6029 73.5338 38.9602C73.5338 38.9602 73.2485 42.6349 68.6858 43.6669C68.6858 43.6669 64.3925 27.8509 47.1845 26.5789C47.1845 26.5789 44.1338 26.2856 40.3792 26.2856C35.3898 26.2856 29.1605 26.8002 27.1818 29.2029C27.1818 29.2029 23.1071 26.2456 18.3365 26.2456H18.3338ZM31.9925 38.2829C30.2298 38.2829 28.6831 36.9922 28.4911 35.2402C28.2618 33.1682 29.8778 31.4162 31.9045 31.4162H49.5792C51.3418 31.4162 52.8885 32.7069 53.0805 34.4589C53.3098 36.5309 51.6938 38.2829 49.6672 38.2829H31.9951H31.9925ZM19.5525 48.7176C17.3125 48.7176 15.5311 46.7602 15.8191 44.4642C16.0298 42.7869 17.3845 41.4322 19.0618 41.2216C19.2271 41.2002 19.3898 41.1896 19.5525 41.1896C21.7925 41.1896 23.5765 43.1469 23.2858 45.4429C23.0751 47.1202 21.7205 48.4749 20.0431 48.6856C19.8778 48.7069 19.7151 48.7176 19.5525 48.7176Z" fill="#009894"/>
<path d="M40.7849 18.8027C45.0515 18.8027 48.5102 15.344 48.5102 11.0774C48.5102 6.8108 45.0515 3.35205 40.7849 3.35205C36.5183 3.35205 33.0596 6.8108 33.0596 11.0774C33.0596 15.344 36.5183 18.8027 40.7849 18.8027Z" stroke="#009894" stroke-width="1.5" stroke-linecap="round" stroke-linejoin="round"/>
</svg>
