<svg width="80" height="80" viewBox="0 0 80 80" fill="none" xmlns="http://www.w3.org/2000/svg">
<path fill-rule="evenodd" clip-rule="evenodd" d="M13.2134 47.5309C13.8294 49.6295 14.6987 51.6669 15.744 53.5175L12.7227 57.4055C11.736 58.6375 11.8587 60.4295 12.9707 61.5389L18.2187 66.7869C19.328 67.9575 21.12 68.0215 22.416 67.0349L26.1787 64.0109C28.1574 65.1202 30.2534 66.0455 32.4134 66.6642L33.0294 71.5415C33.216 73.1442 34.5094 74.3789 36.1147 74.3789H43.5814C45.1254 74.3789 46.4827 73.1442 46.6694 71.5415L47.224 66.8509C49.5707 66.2322 51.792 65.3069 53.8907 64.1362L57.5894 67.0375C58.8267 68.0242 60.6187 67.9629 61.7867 66.8509L67.0347 61.5415C68.144 60.4322 68.2694 58.6402 67.28 57.4082L64.3814 53.7655C65.5547 51.6669 66.5414 49.5069 67.1574 47.1602L71.5387 46.6669C73.1467 46.4829 74.3787 45.1229 74.3787 43.5202V36.1122C74.3787 34.5095 73.1467 33.2109 71.5387 33.0269L67.2187 32.4722C66.6 30.1895 65.6774 28.0295 64.5654 25.9895L67.2187 22.5949C68.2694 21.3602 68.144 19.5709 67.0347 18.3975L61.7867 13.1495C60.616 12.0375 58.8267 11.9149 57.5894 12.9629L54.32 15.5575C52.16 14.3229 49.8747 13.3362 47.4694 12.7175L46.976 8.39758C46.792 6.85624 45.4347 5.62158 43.8294 5.62158H36.4214C34.8187 5.62158 33.4614 6.85624 33.2747 8.39758L32.7814 12.7175C30.376 13.3362 27.968 14.3229 25.808 15.6829L22.4134 12.9655C21.1174 11.9175 19.3254 12.0402 18.216 13.1522L12.968 18.4002C11.792 19.5709 11.7334 21.3629 12.72 22.5975L15.56 26.2402C14.4507 28.2775 13.584 30.4989 12.968 32.7815L8.40002 33.3362C6.79736 33.5202 5.62402 34.8189 5.62402 36.4242V43.8295C5.62402 45.4322 6.79736 46.7922 8.40002 46.9762L13.2134 47.5309ZM40 14.5095C54.072 14.5095 65.4907 25.9282 65.4907 40.0002C65.4907 54.0722 54.072 65.4909 40 65.4909C25.928 65.4909 14.5094 54.0722 14.5094 40.0002C14.5094 25.9282 25.928 14.5095 40 14.5095ZM40 19.5095C51.2934 19.5095 60.4934 28.7042 60.4934 40.0002C60.4934 51.2962 51.2934 60.4909 40 60.4909C28.7067 60.4909 19.5094 51.2935 19.5094 40.0002C19.5094 28.7069 28.704 19.5095 40 19.5095ZM33.7067 38.8295V38.8909C33.7067 40.8029 32.1627 42.3469 30.184 42.3469C28.2054 42.3469 26.7307 40.8029 26.7307 38.8909C26.7307 37.9015 27.16 36.9762 27.84 36.3602C27.3467 35.5575 27.0374 34.5709 27.0374 33.5815C27.0374 30.6189 29.4427 28.1495 32.4667 28.1495C35.4907 28.1495 37.84 30.6189 37.84 33.5815C37.84 36.1735 36.112 38.2722 33.7067 38.8295ZM40 37.5949C41.296 37.5949 42.408 38.6455 42.408 40.0029C42.408 41.3602 41.2987 42.4109 40 42.4109C38.7014 42.4109 37.592 41.2989 37.592 40.0029C37.592 38.7069 38.6427 37.5949 40 37.5949Z" stroke="#009894" stroke-width="1.5" stroke-linecap="round" stroke-linejoin="round"/>
</svg>
