<svg width="81" height="80" viewBox="0 0 81 80" fill="none" xmlns="http://www.w3.org/2000/svg">
<path d="M20.0981 51.3868C19.3088 51.3868 18.5968 50.8428 18.4155 50.0428C18.0261 48.3308 18.3515 46.5308 19.3328 44.9762C19.9141 44.0562 20.0075 42.9495 19.5915 41.9441C19.1755 40.9388 18.3275 40.2241 17.2661 39.9841C14.1115 39.2721 11.9941 36.6215 11.9941 33.3868C11.9941 30.1521 14.1141 27.5015 17.2661 26.7895C18.3275 26.5495 19.1755 25.8348 19.5915 24.8295C20.0075 23.8242 19.9141 22.7201 19.3328 21.7975C17.6075 19.0641 17.9835 15.6908 20.2688 13.4055C22.5541 11.1201 25.9275 10.7415 28.6608 12.4695C29.5808 13.0508 30.6875 13.1441 31.6928 12.7281C32.6981 12.3121 33.4128 11.4641 33.6528 10.4028C34.3648 7.24819 37.0155 5.13086 40.2501 5.13086C43.4848 5.13086 46.1355 7.25086 46.8475 10.4028C47.0875 11.4641 47.8021 12.3121 48.8075 12.7308C49.8128 13.1468 50.9168 13.0535 51.8395 12.4721C54.5728 10.7468 57.9461 11.1228 60.2315 13.4081C62.5168 15.6935 62.8928 19.0668 61.1675 21.8002C60.5861 22.7202 60.4928 23.8268 60.9088 24.8322C61.3248 25.8375 62.1728 26.5522 63.2341 26.7922C66.3888 27.5042 68.5061 30.1548 68.5061 33.3895C68.5061 36.6242 66.3861 39.2748 63.2341 39.9868C62.1728 40.2268 61.3248 40.9415 60.9088 41.9468C60.4928 42.9521 60.5861 44.0561 61.1675 44.9788C62.0635 46.3975 62.4128 47.9815 62.1781 49.5602C62.0368 50.5042 61.1568 51.1548 60.2128 51.0135C59.2688 50.8722 58.6181 49.9921 58.7595 49.0481C58.8715 48.2908 58.7008 47.5415 58.2448 46.8241C57.0741 44.9681 56.8741 42.6508 57.7141 40.6241C58.5541 38.5975 60.3328 37.0988 62.4715 36.6162C64.3728 36.1868 65.0501 34.6695 65.0501 33.3895C65.0501 32.1095 64.3728 30.5922 62.4715 30.1628C60.3301 29.6802 58.5541 28.1815 57.7141 26.1548C56.8741 24.1282 57.0715 21.8108 58.2448 19.9548C59.2848 18.3068 58.6901 16.7548 57.7861 15.8508C56.8821 14.9468 55.3301 14.3521 53.6821 15.3921C51.8261 16.5628 49.5088 16.7628 47.4821 15.9228C45.4555 15.0828 43.9568 13.3041 43.4741 11.1655C43.0448 9.26419 41.5275 8.58686 40.2475 8.58686C38.9675 8.58686 37.4501 9.26419 37.0208 11.1655C36.5381 13.3041 35.0395 15.0828 33.0128 15.9228C30.9861 16.7628 28.6688 16.5655 26.8128 15.3921C25.1648 14.3521 23.6128 14.9468 22.7088 15.8508C21.8048 16.7548 21.2101 18.3068 22.2501 19.9548C23.4208 21.8108 23.6208 24.1282 22.7808 26.1548C21.9408 28.1815 20.1621 29.6802 18.0235 30.1628C16.1221 30.5922 15.4448 32.1095 15.4448 33.3895C15.4448 34.6695 16.1221 36.1868 18.0235 36.6162C20.1621 37.0988 21.9408 38.5975 22.7808 40.6241C23.6208 42.6508 23.4235 44.9681 22.2501 46.8241C21.7541 47.6081 21.5915 48.4561 21.7808 49.2775C21.9941 50.2081 21.4101 51.1335 20.4795 51.3468C20.3515 51.3762 20.2208 51.3895 20.0928 51.3895L20.0981 51.3868Z" stroke="#009894" stroke-width="1.5" stroke-linecap="round" stroke-linejoin="round"/>
<path d="M59.4685 69.8054L50.6898 47.7095C48.5911 49.2748 46.1245 50.3681 43.4525 50.8614L41.2231 58.0454L47.7378 74.4455C47.9591 75.0001 48.6391 75.0188 48.7618 74.4721L50.6791 65.9948C50.7618 65.6294 51.1271 65.4828 51.4391 65.6881L58.7431 70.5308C59.2071 70.8401 59.6871 70.3574 59.4658 69.8054H59.4685Z" stroke="#009894" stroke-width="1.5" stroke-linecap="round" stroke-linejoin="round"/>
<path d="M56.8472 33.4135C56.8472 24.2349 49.4072 16.7949 40.2286 16.7949C31.0499 16.7949 23.6099 24.2349 23.6099 33.4135C23.6099 38.8829 26.2526 43.7362 30.3326 46.7629L22.9406 70.5842C22.7646 71.1549 23.2819 71.5975 23.7192 71.2482L30.5352 65.8562C30.8286 65.6242 31.2046 65.7389 31.3192 66.0962L33.9619 74.4509C34.1299 74.9815 34.8046 74.9095 34.9806 74.3389L42.5779 49.8615C50.6419 48.7202 56.8446 41.7922 56.8446 33.4135H56.8472Z" stroke="#009894" stroke-width="1.5" stroke-linecap="round" stroke-linejoin="round"/>
</svg>
