<svg width="81" height="80" viewBox="0 0 81 80" fill="none" xmlns="http://www.w3.org/2000/svg">
<path d="M38.3962 37.9333C37.2122 30.2666 30.5855 24.3999 22.5882 24.3999C13.7535 24.3999 6.59082 31.5626 6.59082 40.3973C6.59082 48.3813 12.4388 54.9973 20.0842 56.1973C20.8868 46.4639 28.6548 38.7119 38.3935 37.9333H38.3962Z" stroke="#009894" stroke-width="1.5" stroke-linecap="round" stroke-linejoin="round"/>
<path d="M40.5051 73.9947C49.3402 73.9947 56.5025 66.8324 56.5025 57.9973C56.5025 49.1623 49.3402 42 40.5051 42C31.6701 42 24.5078 49.1623 24.5078 57.9973C24.5078 66.8324 31.6701 73.9947 40.5051 73.9947Z" stroke="#009894" stroke-width="1.5" stroke-linecap="round" stroke-linejoin="round"/>
<path d="M40.5052 6.0083C32.2066 6.0083 25.3879 12.3256 24.5879 20.4136C31.5879 21.1416 37.5106 25.4803 40.4679 31.5336C43.4012 25.4109 49.3586 21.0109 56.4066 20.2776C55.5452 12.2563 48.7559 6.0083 40.5052 6.0083Z" stroke="#009894" stroke-width="1.5" stroke-linecap="round" stroke-linejoin="round"/>
<path d="M58.412 24.2402C50.4066 24.2402 43.772 30.1229 42.5986 37.8002C52.1906 38.7335 59.7906 46.4455 60.5613 56.0855C68.3773 55.0349 74.4066 48.3415 74.4066 40.2375C74.4066 31.4029 67.244 24.2402 58.4093 24.2402H58.412Z" stroke="#009894" stroke-width="1.5" stroke-linecap="round" stroke-linejoin="round"/>
</svg>
