<svg width="42" height="34" viewBox="0 0 42 34" fill="none" xmlns="http://www.w3.org/2000/svg">
<path fill-rule="evenodd" clip-rule="evenodd" d="M8.176 5.44L7.5929 2.04H5.4999C5.1877 0.8704 4.1013 0 2.8 0C1.2558 0 0 1.21992 0 2.72C0 4.22008 1.2558 5.44 2.8 5.44C4.1013 5.44 5.1877 4.5696 5.5006 3.4H6.4064L6.7564 5.44H6.7298L10.3495 23.1309C8.624 23.2587 7.1869 24.5494 7.0175 26.1732C6.9181 27.1286 7.2415 28.0854 7.9051 28.7966C8.5694 29.51 9.5158 29.92 10.5 29.92H11.9C11.9 32.1701 13.7837 34 16.1 34C18.4163 34 20.3 32.1701 20.3 29.92H28C28 32.1701 29.8837 34 32.2 34C34.5163 34 36.4 32.1701 36.4 29.92H39.2C39.5871 29.92 39.9 29.616 39.9 29.24C39.9 28.864 39.5871 28.56 39.2 28.56H36.155C35.5768 26.9776 34.0249 25.84 32.2 25.84C30.3751 25.84 28.8232 26.9776 28.245 28.56H20.055C19.4768 26.9776 17.9249 25.84 16.1 25.84C14.2751 25.84 12.7232 26.9776 12.145 28.56H10.5C9.9106 28.56 9.3436 28.3138 8.9432 27.8848C8.5393 27.4502 8.3496 26.8913 8.4105 26.3099C8.5169 25.2838 9.4927 24.4807 10.6316 24.4807H11.1853H11.2126H38.5084C40.4341 24.48 42 22.9588 42 21.0888V5.44H8.176ZM2.8 4.08C2.0279 4.08 1.4 3.47004 1.4 2.72C1.4 1.96996 2.0279 1.36 2.8 1.36C3.5721 1.36 4.2 1.96996 4.2 2.72C4.2 3.47004 3.5721 4.08 2.8 4.08ZM35 29.92C35 28.4199 33.7442 27.2 32.2 27.2C30.6558 27.2 29.4 28.4199 29.4 29.92C29.4 31.4201 30.6558 32.64 32.2 32.64C33.7442 32.64 35 31.4201 35 29.92ZM16.1 27.2C17.6442 27.2 18.9 28.4199 18.9 29.92C18.9 31.4201 17.6442 32.64 16.1 32.64C14.5558 32.64 13.3 31.4201 13.3 29.92C13.3 28.4199 14.5558 27.2 16.1 27.2ZM38.5091 23.12C39.662 23.12 40.6 22.2088 40.6 21.0888V6.8H8.4357L11.7747 23.12H38.5091Z" fill="black"/>
</svg>
