<?xml version="1.0" encoding="UTF-8"?>
<svg width="32px" height="32px" viewBox="0 0 32 32" version="1.1" xmlns="http://www.w3.org/2000/svg" xmlns:xlink="http://www.w3.org/1999/xlink">
    <!-- Generator: Sketch 59.1 (86144) - https://sketch.com -->
    <title>close</title>
    <desc>Created with Sketch.</desc>
    <g id="Checkout-&amp;-payment" stroke="none" stroke-width="1" fill="none" fill-rule="evenodd">
        <g id="Cancellation-Policy" transform="translate(-1217.000000, -1088.000000)" fill-rule="nonzero">
            <g id="Group-8" transform="translate(646.000000, 1063.000000)">
                <g id="close" transform="translate(571.000000, 25.000000)">
                    <path d="M17.0612662,16.0001251 L21.7801172,11.2810774 C22.0732943,10.9881382 22.0732943,10.5128312 21.7801172,10.219892 C21.48694,9.92670266 21.0121532,9.92670266 20.718976,10.219892 L16.0001251,14.9389397 L11.281024,10.219892 C10.9878468,9.92670266 10.51306,9.92670266 10.2198828,10.219892 C9.92670572,10.5128312 9.92670572,10.9881382 10.2198828,11.2810774 L14.938984,16.0001251 L10.2198828,20.7191728 C9.92670572,21.012112 9.92670572,21.487419 10.2198828,21.7803581 C10.3664714,21.9267027 10.5585875,22 10.7504534,22 C10.9423193,22 11.1344354,21.9267027 11.281024,21.780108 L16.0001251,17.0610603 L20.718976,21.780108 C20.8655646,21.9267027 21.0576807,22 21.2495466,22 C21.4414125,22 21.6335286,21.9267027 21.7801172,21.780108 C22.0732943,21.4871688 22.0732943,21.0118618 21.7801172,20.7189226 L17.0612662,16.0001251 Z" id="Path" fill="#000000"></path>
                    <rect id="Rectangle" stroke="#000000" x="0.5" y="0.5" width="31" height="31"></rect>
                </g>
            </g>
        </g>
    </g>
</svg>