<svg width="50" height="50" viewBox="0 0 50 50" fill="none" xmlns="http://www.w3.org/2000/svg">
<g clip-path="url(#clip0_8_69)">
<path d="M50 25C50 11.1929 38.8071 0 25 0C11.1929 0 0 11.1929 0 25C0 38.8071 11.1929 50 25 50C38.8071 50 50 38.8071 50 25Z" fill="white"/>
<path d="M29 29H33.4C33.9601 29 34.2401 29 34.454 28.891C34.6422 28.7951 34.7951 28.6422 34.891 28.454C35 28.2401 35 27.9601 35 27.4V24.6627C35 24.4182 35 24.2959 34.9724 24.1808C34.9479 24.0787 34.9075 23.9812 34.8526 23.8917C34.7908 23.7908 34.7043 23.7043 34.5314 23.5314L32.4686 21.4686C32.2957 21.2957 32.2092 21.2092 32.1083 21.1474C32.0188 21.0925 31.9213 21.0521 31.8192 21.0276C31.7041 21 31.5818 21 31.3373 21H29M29 29V19.2C29 18.0799 29 17.5198 28.782 17.092C28.5903 16.7157 28.2843 16.4097 27.908 16.218C27.4802 16 26.9201 16 25.8 16H18.2C17.0799 16 16.5198 16 16.092 16.218C15.7157 16.4097 15.4097 16.7157 15.218 17.092C15 17.5198 15 18.0799 15 19.2V25.8C15 26.9201 15 27.4802 15.218 27.908C15.4097 28.2843 15.7157 28.5903 16.092 28.782C16.5198 29 17.0799 29 18.2 29H29ZM22 31.5C22 32.8807 20.8807 34 19.5 34C18.1193 34 17 32.8807 17 31.5C17 30.1193 18.1193 29 19.5 29C20.8807 29 22 30.1193 22 31.5ZM33 31.5C33 32.8807 31.8807 34 30.5 34C29.1193 34 28 32.8807 28 31.5C28 30.1193 29.1193 29 30.5 29C31.8807 29 33 30.1193 33 31.5Z" stroke="#008984" stroke-width="2" stroke-linecap="round" stroke-linejoin="round"/>
</g>
<defs>
<clipPath id="clip0_8_69">
<rect width="50" height="50" fill="white"/>
</clipPath>
</defs>
</svg>
