<svg width="50" height="50" viewBox="0 0 50 50" fill="none" xmlns="http://www.w3.org/2000/svg">
<g clip-path="url(#clip0_8_63)">
<path d="M50 25C50 11.1929 38.8071 0 25 0C11.1929 0 0 11.1929 0 25C0 38.8071 11.1929 50 25 50C38.8071 50 50 38.8071 50 25Z" fill="white"/>
<path d="M22 25L24 27L28.5 22.5M22.2019 33.6009C22.5297 33.5575 22.8607 33.6464 23.1218 33.8475L24.3251 34.7708C24.7228 35.0764 25.2761 35.0764 25.6727 34.7708L26.9215 33.812C27.1548 33.6331 27.4492 33.5542 27.7403 33.5931L29.3024 33.7986C29.799 33.8642 30.2779 33.5875 30.4701 33.1242L31.0712 31.6709C31.1834 31.3987 31.3989 31.1832 31.6711 31.0709L33.1243 30.4698C33.5876 30.2787 33.8643 29.7988 33.7987 29.3021L33.601 27.7966C33.5576 27.4688 33.6465 27.1377 33.8476 26.8766L34.7709 25.6733C35.0764 25.2755 35.0764 24.7222 34.7709 24.3256L33.812 23.0767C33.6332 22.8434 33.5543 22.549 33.5932 22.2579L33.7987 20.6957C33.8643 20.199 33.5876 19.7201 33.1243 19.5279L31.6711 18.9268C31.3989 18.8146 31.1834 18.5991 31.0712 18.3269L30.4701 16.8736C30.279 16.4102 29.799 16.1336 29.3024 16.1991L27.7403 16.4047C27.4492 16.4447 27.1548 16.3658 26.9226 16.188L25.6738 15.2292C25.2761 14.9236 24.7228 14.9236 24.3262 15.2292L23.0774 16.188C22.8441 16.3658 22.5496 16.4447 22.2586 16.4069L20.6965 16.2014C20.1998 16.1358 19.721 16.4125 19.5288 16.8758L18.9288 18.3291C18.8155 18.6002 18.6 18.8157 18.3289 18.9291L16.8757 19.529C16.4124 19.7213 16.1357 20.2001 16.2013 20.6968L16.4068 22.259C16.4446 22.5501 16.3657 22.8445 16.188 23.0767L15.2291 24.3256C14.9236 24.7233 14.9236 25.2767 15.2291 25.6733L16.188 26.9222C16.3668 27.1555 16.4457 27.4499 16.4068 27.741L16.2013 29.3032C16.1357 29.7999 16.4124 30.2787 16.8757 30.471L18.3289 31.0721C18.6011 31.1843 18.8166 31.3998 18.9288 31.672L19.5299 33.1253C19.721 33.5887 20.201 33.8653 20.6976 33.7998L22.2019 33.6009Z" stroke="#008984" stroke-width="2" stroke-linecap="round" stroke-linejoin="round"/>
</g>
<defs>
<clipPath id="clip0_8_63">
<rect width="50" height="50" fill="white"/>
</clipPath>
</defs>
</svg>
