<svg width="51" height="50" viewBox="0 0 51 50" fill="none" xmlns="http://www.w3.org/2000/svg">
<g clip-path="url(#clip0_8_66)">
<path d="M50.5 25C50.5 11.1929 39.3071 0 25.5 0C11.6929 0 0.5 11.1929 0.5 25C0.5 38.8071 11.6929 50 25.5 50C39.3071 50 50.5 38.8071 50.5 25Z" fill="white"/>
<path d="M22 27.6667C22 28.9553 23.0447 30 24.3333 30H26.5C27.8807 30 29 28.8807 29 27.5C29 26.1193 27.8807 25 26.5 25H24.5C23.1193 25 22 23.8807 22 22.5C22 21.1193 23.1193 20 24.5 20H26.6667C27.9553 20 29 21.0447 29 22.3333M25.5 18.5V20M25.5 30V31.5M35.5 25C35.5 30.5228 31.0228 35 25.5 35C19.9772 35 15.5 30.5228 15.5 25C15.5 19.4772 19.9772 15 25.5 15C31.0228 15 35.5 19.4772 35.5 25Z" stroke="#008984" stroke-width="2" stroke-linecap="round" stroke-linejoin="round"/>
</g>
<defs>
<clipPath id="clip0_8_66">
<rect width="51" height="50" fill="white"/>
</clipPath>
</defs>
</svg>
