<svg width="145" height="52" viewBox="0 0 145 52" fill="none" xmlns="http://www.w3.org/2000/svg">
<g clip-path="url(#clip0_315_364)">
<path d="M18.7556 0.602173L18.7854 0.646031L23.32 7.72643C23.32 7.72643 14.3601 22.3599 12.3238 25.8587C10.2874 29.3526 8.76268 32.3007 8.76268 34.401C8.76268 36.5012 11.395 43.6888 18.9443 43.6888C26.4937 43.6888 28.972 36.6718 28.972 34.0989C28.972 32.1351 26.3943 26.8382 21.7108 20.2792L26.4639 12.3557C26.4639 12.3557 37.0876 27.0721 37.0876 34.2987C37.0876 41.5252 32.0663 51.7779 18.9294 51.7779C5.79261 51.7779 0.463379 41.7397 0.463379 33.7967C0.463379 25.8538 18.7556 0.602173 18.7556 0.602173Z" fill="#008984"/>
<path d="M18.994 39.6394C22.3103 39.6394 24.9987 37.0017 24.9987 33.748C24.9987 30.4942 22.3103 27.8566 18.994 27.8566C15.6777 27.8566 12.9893 30.4942 12.9893 33.748C12.9893 37.0017 15.6777 39.6394 18.994 39.6394Z" fill="#008984"/>
<path d="M35.5231 41.4961C35.7317 40.6336 35.8459 39.7369 35.8459 38.8208C35.8459 33.1487 31.6689 28.3537 25.9175 26.7651C27.9092 30.2103 28.972 32.8417 28.972 34.0989C28.972 36.6719 26.4937 43.6889 18.9443 43.6889C11.395 43.6889 8.76266 36.4964 8.76266 34.4011C8.76266 34.25 8.77259 34.0989 8.78749 33.9381C8.08222 35.439 7.69482 37.0861 7.69482 38.8208C7.69482 45.7843 13.9975 51.432 21.7704 51.432C22.2819 51.432 22.7885 51.4077 23.2902 51.3589C29.6823 50.0627 33.5761 45.9451 35.528 41.5009L35.5231 41.4961Z" fill="#008984"/>
<path d="M46.6089 39.7028V27.9395H53.2692V30.5757H49.5442V32.408H53.15V35.0442H49.5442V37.0616H53.2692V39.6979H46.6089V39.7028Z" fill="#414042"/>
<path d="M67.2803 35.0784C66.9327 36.4623 66.1976 37.5782 65.0751 38.431C63.9626 39.2789 62.6762 39.7029 61.221 39.7029C59.4727 39.7029 57.9827 39.1132 56.751 37.934C55.5193 36.7498 54.8984 35.2977 54.8984 33.5824C54.8984 31.8671 55.5093 30.4248 56.7311 29.2455C57.948 28.0809 59.433 27.501 61.1862 27.501C63.4659 27.501 65.2241 28.422 66.4608 30.2639C66.8929 30.9023 67.1661 31.5407 67.2754 32.1888H64.0619C63.5305 30.8243 62.562 30.1421 61.1664 30.1421C60.2227 30.1421 59.4429 30.4881 58.832 31.1752C58.246 31.8379 57.9529 32.6371 57.9529 33.5727C57.9529 34.5083 58.246 35.3269 58.832 35.9994C59.4479 36.7157 60.2326 37.0715 61.1813 37.0715C62.4875 37.0715 63.451 36.4087 64.0619 35.0833H67.2754L67.2803 35.0784Z" fill="#414042"/>
<path d="M79.7116 37.9582C78.4848 39.1228 76.9849 39.7027 75.2168 39.7027C73.4486 39.7027 72.0232 39.1326 70.7964 37.9874C69.5399 36.8277 68.9141 35.4145 68.9141 33.7431C68.9141 32.8513 69.068 32.0132 69.3809 31.2287C69.5448 30.8096 69.8031 30.371 70.1657 29.9081C71.4123 28.3 73.101 27.496 75.2366 27.496C76.9998 27.496 78.4898 28.0807 79.7116 29.2502C80.9433 30.4246 81.5642 31.8719 81.5642 33.5969C81.5642 35.3219 80.9483 36.7789 79.7116 37.9582ZM77.6157 31.1897C76.9899 30.488 76.2002 30.1322 75.2515 30.1322C74.3029 30.1322 73.5033 30.4733 72.8775 31.1556C72.2765 31.8134 71.9735 32.6126 71.9735 33.5628C71.9735 34.513 72.2765 35.3463 72.8824 36.0139C73.5082 36.7107 74.3079 37.0616 75.2813 37.0616C76.2548 37.0616 76.9899 36.7107 77.6157 36.0041C78.2067 35.3366 78.4997 34.5374 78.4997 33.6067C78.4997 32.6759 78.2017 31.8524 77.6157 31.1848V31.1897Z" fill="#414042"/>
<path d="M95.5753 35.0784C95.2276 36.4623 94.4925 37.5782 93.3701 38.431C92.2575 39.2789 90.9712 39.7029 89.5159 39.7029C87.7677 39.7029 86.2777 39.1132 85.0459 37.934C83.8142 36.7498 83.1934 35.2977 83.1934 33.5824C83.1934 31.8671 83.8043 30.4248 85.0261 29.2455C86.2429 28.0809 87.7279 27.501 89.4812 27.501C91.7609 27.501 93.5191 28.422 94.7558 30.2639C95.1879 30.9023 95.461 31.5407 95.5703 32.1888H92.3569C91.8254 30.8243 90.8569 30.1421 89.4613 30.1421C88.5176 30.1421 87.7379 30.4881 87.127 31.1752C86.5409 31.8379 86.2479 32.6371 86.2479 33.5727C86.2479 34.5083 86.5409 35.3269 87.127 35.9994C87.7428 36.7157 88.5276 37.0715 89.4762 37.0715C90.7824 37.0715 91.746 36.4087 92.3569 35.0833H95.5703L95.5753 35.0784Z" fill="#7A797B"/>
<path d="M97.2095 39.7028V27.9395H100.269V37.0665H103.82V39.7028H97.2095Z" fill="#7A797B"/>
<path d="M105.454 39.7028V27.9395H112.114V30.5757H108.389V32.408H111.995V35.0442H108.389V37.0616H112.114V39.6979H105.454V39.7028Z" fill="#7A797B"/>
<path d="M122.415 39.7028L121.829 38.0021H117.667L117.036 39.7028H113.748L118.556 27.9395H120.97L125.738 39.7028H122.415ZM119.788 31.599H119.738L118.506 35.6192H121.019L119.788 31.599Z" fill="#7A797B"/>
<path d="M134.822 39.7028L130.258 32.5493L130.218 32.5639L130.307 39.7028H127.372V27.9395H130.014L134.648 35.3366L134.678 35.3074L134.544 27.9443H137.479V39.7076H134.822V39.7028Z" fill="#7A797B"/>
<path d="M139.465 27.0767H138.591V26.5455H140.985V27.0767H140.111V29.4157H139.47V27.0767H139.465Z" fill="black"/>
<path d="M141.322 26.5455H142.226L142.912 28.5191H142.922L143.567 26.5455H144.471V29.4157H143.87V27.3837H143.86L143.145 29.4157H142.648L141.933 27.4032H141.923V29.4157H141.322V26.5455Z" fill="black"/>
</g>
<defs>
<clipPath id="clip0_315_364">
<rect width="145" height="52" fill="white"/>
</clipPath>
</defs>
</svg>
