<svg width="24" height="24" viewBox="0 0 24 24" fill="none" xmlns="http://www.w3.org/2000/svg">
<path fill-rule="evenodd" clip-rule="evenodd" d="M12 0C15.2053 0 18.2188 1.24823 20.4853 3.51469C22.7518 5.78123 24 8.79469 24 12C24 15.2053 22.7518 18.2188 20.4853 20.4853C18.2188 22.7518 15.2053 24 12 24C8.79469 24 5.78119 22.7518 3.51469 20.4853C1.24823 18.2188 0 15.2053 0 12C0 8.79469 1.24823 5.78119 3.51469 3.51469C5.78119 1.24823 8.79464 0 12 0ZM11.0269 15.8503L17.7331 9.14405C18.0077 8.86945 18.0077 8.42428 17.7331 8.14969C17.4585 7.87509 17.0133 7.87509 16.7387 8.14969L10.5298 14.3587L7.26127 11.0903C6.98667 10.8157 6.54145 10.8157 6.26691 11.0903C5.99231 11.3649 5.99231 11.8101 6.26691 12.0847L10.0326 15.8503C10.1699 15.9876 10.3498 16.0562 10.5298 16.0562C10.7097 16.0562 10.8896 15.9876 11.0269 15.8503Z" fill="#62BD89"/>
</svg>
