<?xml version="1.0" encoding="UTF-8"?>
<svg width="88px" height="64px" viewBox="0 0 88 64" version="1.1" xmlns="http://www.w3.org/2000/svg" xmlns:xlink="http://www.w3.org/1999/xlink">
    <!-- Generator: Sketch 52.1 (67048) - http://www.bohemiancoding.com/sketch -->
    <title>“</title>
    <desc>Created with Sketch.</desc>
    <g id="Blog" stroke="none" stroke-width="1" fill="none" fill-rule="evenodd" opacity="0.0404808408">
        <g id="Blog-Single" transform="translate(-421.000000, -1950.000000)" fill="#000000">
            <path d="M500.011299,1997.26154 C500.011299,2006.86154 492.966102,2014 482.519774,2014 C473.531073,2014 466,2007.6 466,1996.03077 C466,1973.13846 484.220339,1951.72308 509,1950 L506.570621,1961.81538 C494.909605,1964.03077 483.977401,1974.36923 481.548023,1984.70769 C482.276836,1984.21538 484.463277,1983.96923 486.40678,1983.96923 C493.937853,1983.96923 500.011299,1988.89231 500.011299,1997.26154 Z M455.011299,1997.26154 C455.011299,2006.86154 447.966102,2014 437.519774,2014 C428.531073,2014 421,2007.6 421,1996.03077 C421,1973.13846 439.220339,1951.72308 464,1950 L461.570621,1961.81538 C449.909605,1964.03077 438.977401,1974.36923 436.548023,1984.70769 C437.276836,1984.21538 439.463277,1983.96923 441.40678,1983.96923 C448.937853,1983.96923 455.011299,1988.89231 455.011299,1997.26154 Z" id="“"></path>
        </g>
    </g>
</svg>