<?xml version="1.0" encoding="UTF-8"?>
<svg version="1.1" viewBox="0 0 30 30" xmlns="http://www.w3.org/2000/svg" xmlns:xlink="http://www.w3.org/1999/xlink">
    <!--Generated by IJSVG (https://github.com/curthard89/IJSVG)-->
    <g fill="#62BD89">
        <path d="M7.21895,1.5621c1.5621,1.5621 1.5621,4.09476 0,5.65685c-1.5621,1.5621 -4.09476,1.5621 -5.65685,0c-1.5621,-1.5621 -1.5621,-4.09476 -1.77636e-15,-5.65685c1.5621,-1.5621 4.09476,-1.5621 5.65685,-1.77636e-15" transform="translate(10.6095, 10.6095)"></path>
        <path d="M16.999,0h-10c-3.859,0 -6.999,3.141 -6.999,7.001v10c0,3.859 3.141,6.999 7.001,6.999h10c3.859,0 6.999,-3.141 6.999,-7.001v-10c0,-3.859 -3.141,-6.999 -7.001,-6.999Zm-4.999,18c-3.309,0 -6,-2.691 -6,-6c0,-3.309 2.691,-6 6,-6c3.309,0 6,2.691 6,6c0,3.309 -2.691,6 -6,6Zm7,-12c-0.552,0 -1,-0.448 -1,-1c0,-0.552 0.448,-1 1,-1c0.552,0 1,0.448 1,1c0,0.552 -0.448,1 -1,1Z" transform="translate(3, 3)"></path>
    </g>
</svg>