<?xml version="1.0" encoding="UTF-8"?>
<svg width="213px" height="52px" viewBox="0 0 213 52" version="1.1" xmlns="http://www.w3.org/2000/svg" xmlns:xlink="http://www.w3.org/1999/xlink">
    <!-- Generator: Sketch 52.2 (67145) - http://www.bohemiancoding.com/sketch -->
    <title>Paypal</title>
    <desc>Created with Sketch.</desc>
    <g id="Symbols" stroke="none" stroke-width="1" fill="none" fill-rule="evenodd">
        <g id="Paypal">
            <g transform="translate(0.000000, 0.399981)">
                <path d="M79.5776395,11.5559659 L67.8005077,11.5559659 C66.9944958,11.5559659 66.3090721,12.1337404 66.183178,12.9190188 L61.4199417,42.715811 C61.3254005,43.3040559 61.7870124,43.8337618 62.3914007,43.8337618 L68.0137077,43.8337618 C68.8197197,43.8337618 69.5051433,43.2564633 69.6310375,42.4697571 L70.9155436,34.4327901 C71.0395084,33.646084 71.7263791,33.0683095 72.5309439,33.0683095 L76.2590506,33.0683095 C84.0167345,33.0683095 88.4939354,29.3641753 89.6636415,22.0244403 C90.190371,18.8128897 89.6858297,16.2900046 88.1615941,14.5228903 C86.4878291,12.5825389 83.5189461,11.5559659 79.5776395,11.5559659 Z M80.9359456,22.438972 C80.2920043,26.6085621 77.0631331,26.6085621 73.9413442,26.6085621 L72.1638733,26.6085621 L73.4107559,18.8214564 C73.4850383,18.3507653 73.8979325,18.004291 74.3802855,18.004291 L75.1949798,18.004291 C77.3216743,18.004291 79.3277806,18.004291 80.3643573,19.2002937 C80.9827339,19.9137072 81.1718163,20.974071 80.9359456,22.438972 Z" id="Fill-1" fill="#28356A"></path>
                <path d="M114.781211,22.3047608 L109.14154,22.3047608 C108.661116,22.3047608 108.24581,22.6512352 108.17201,23.1219262 L107.922151,24.6782052 L107.528069,24.1142325 C106.307233,22.3656794 103.58435,21.7812419 100.867256,21.7812419 C94.6347719,21.7812419 89.3120061,26.4386565 88.2754295,32.9716964 C87.7366411,36.2303637 88.5026177,39.3467289 90.3765593,41.5198083 C92.0951832,43.5177468 94.5542189,44.3506178 97.4796901,44.3506178 C102.501468,44.3506178 105.285609,41.1647673 105.285609,41.1647673 L105.034303,42.7110518 C104.939762,43.3021522 105.401374,43.8323341 106.002386,43.8323341 L111.082046,43.8323341 C111.889987,43.8323341 112.572034,43.2545596 112.699376,42.4678534 L115.747364,23.4227117 C115.843835,22.8363705 115.38367,22.3047608 114.781211,22.3047608 Z M106.919821,33.1349392 C106.375727,36.3136508 103.818774,38.4477042 100.557103,38.4477042 C98.9195139,38.4477042 97.6108901,37.9294205 96.7701488,36.9475846 C95.9366428,35.9724116 95.6202192,34.5841347 95.885031,33.0378502 C96.3934311,29.8862664 98.993314,27.6822518 102.205303,27.6822518 C103.806715,27.6822518 105.108586,28.2076744 105.966209,29.1976011 C106.82528,30.198474 107.166304,31.5953177 106.919821,33.1349392 Z" id="Fill-2" fill="#28356A"></path>
                <path d="M144.817335,22.3047608 L139.149687,22.3047608 C138.608969,22.3047608 138.101051,22.5698518 137.794757,23.0134151 L129.978226,34.3732993 L126.664943,23.4565024 C126.456567,22.7735482 125.817931,22.3047608 125.094402,22.3047608 L119.525636,22.3047608 C118.848412,22.3047608 118.3786,22.9572558 118.59373,23.5859544 L124.836343,41.6606825 L118.967553,49.8351922 C118.505941,50.4791204 118.97093,51.3643433 119.768259,51.3643433 L125.428672,51.3643433 C125.966013,51.3643433 126.468625,51.1059153 126.773472,50.6713946 L145.622864,23.8253453 C146.074347,23.1833207 145.610806,22.3047608 144.817335,22.3047608" id="Fill-3" fill="#28356A"></path>
                <path d="M163.580386,11.5559659 L151.801807,11.5559659 C150.997724,11.5559659 150.312301,12.1337404 150.186407,12.9190188 L145.42317,42.715811 C145.328629,43.3040559 145.790241,43.8337618 146.391253,43.8337618 L152.435619,43.8337618 C152.996595,43.8337618 153.477019,43.4297004 153.564807,42.8790537 L154.916843,34.4327901 C155.040808,33.646084 155.728161,33.0683095 156.532243,33.0683095 L160.258903,33.0683095 C168.018034,33.0683095 172.493788,29.3641753 173.664941,22.0244403 C174.1936,18.8128897 173.685682,16.2900046 172.161446,14.5228903 C170.489128,12.5825389 167.522175,11.5559659 163.580386,11.5559659 Z M164.939174,22.438972 C164.29668,26.6085621 161.067809,26.6085621 157.94409,26.6085621 L156.169031,26.6085621 L157.417361,18.8214564 C157.491161,18.3507653 157.901161,18.004291 158.384961,18.004291 L159.199655,18.004291 C161.324421,18.004291 163.332456,18.004291 164.369033,19.2002937 C164.98741,19.9137072 165.175045,20.974071 164.939174,22.438972 Z" id="Fill-4" fill="#298FC2"></path>
                <path d="M198.78251,22.3047608 L193.146215,22.3047608 C192.662415,22.3047608 192.250968,22.6512352 192.178615,23.1219262 L191.928756,24.6782052 L191.532744,24.1142325 C190.311909,22.3656794 187.590955,21.7812419 184.873378,21.7812419 C178.641377,21.7812419 173.320541,26.4386565 172.283964,32.9716964 C171.746623,36.2303637 172.509223,39.3467289 174.382682,41.5198083 C176.105165,43.5177468 178.560342,44.3506178 181.486295,44.3506178 C186.50759,44.3506178 189.292214,41.1647673 189.292214,41.1647673 L189.040908,42.7110518 C188.946367,43.3021522 189.407497,43.8323341 190.012367,43.8323341 L195.09058,43.8323341 C195.894663,43.8323341 196.580086,43.2545596 196.705981,42.4678534 L199.755417,23.4227117 C199.848511,22.8363705 199.386899,22.3047608 198.78251,22.3047608 Z M190.921603,33.1349392 C190.380885,36.3136508 187.820073,38.4477042 184.558402,38.4477042 C182.92419,38.4477042 181.612189,37.9294205 180.771448,36.9475846 C179.938424,35.9724116 179.624895,34.5841347 179.88633,33.0378502 C180.398107,29.8862664 182.994613,27.6822518 186.206602,27.6822518 C187.808014,27.6822518 189.109885,28.2076744 189.967509,29.1976011 C190.829956,30.198474 191.170979,31.5953177 190.921603,33.1349392 Z" id="Fill-5" fill="#298FC2"></path>
                <path d="M205.431265,12.3736072 L200.597605,42.715811 C200.503064,43.3040559 200.964193,43.8337618 201.565205,43.8337618 L206.424912,43.8337618 C207.232853,43.8337618 207.917795,43.2564633 208.041759,42.4697571 L212.808372,12.6743926 C212.903396,12.0861478 212.441784,11.5545381 211.840772,11.5545381 L206.399347,11.5545381 C205.918924,11.5559659 205.505547,11.9029162 205.431265,12.3736072" id="Fill-6" fill="#298FC2"></path>
                <path d="M12.5122378,49.6243568 L13.4127909,43.9803471 L11.4066846,43.9341823 L1.82715331,43.9341823 L8.48458994,2.28444612 C8.50533112,2.15832566 8.57237819,2.0412478 8.67029586,1.9579607 C8.76869587,1.8746736 8.89410766,1.82898468 9.02530769,1.82898468 L25.1778639,1.82898468 C30.5406649,1.82898468 34.2412775,2.92980215 36.1731014,5.10288153 C37.0789604,6.12231561 37.6558546,7.18791454 37.935137,8.36012096 C38.2279253,9.59039038 38.2327488,11.0600507 37.9471958,12.852865 L37.9264547,12.9832688 L37.9264547,14.1321548 L38.8323137,14.6385404 C39.5949138,15.0378425 40.2012316,15.4947318 40.6662199,16.0177747 C41.4408789,16.8896717 41.9420437,17.997628 42.1537967,19.3107086 C42.372785,20.6613874 42.300432,22.2690664 41.9420437,24.0890084 C41.5286671,26.1821322 40.8606082,28.0054058 39.9581257,29.4969587 C39.1284784,30.8714338 38.0711606,32.0117531 36.8155956,32.8950723 C35.6169483,33.7346063 34.1930421,34.3718716 32.5829477,34.7797404 C31.0225356,35.1804703 29.2436176,35.382739 27.2924996,35.382739 L26.0354876,35.382739 C25.1368639,35.382739 24.2638049,35.7020855 23.5783812,36.2746248 C22.8910281,36.8590623 22.4366516,37.6576666 22.2972515,38.5309913 L22.202228,39.0392805 L20.6109453,48.9875675 L20.5390747,49.3526029 C20.5197806,49.468253 20.4869806,49.5258401 20.4387453,49.564866 C20.3958159,49.6005605 20.3340747,49.6243568 20.2737805,49.6243568 L12.5122378,49.6243568" id="Fill-7" fill="#28356A"></path>
                <path d="M39.689455,13.1160522 C39.6417021,13.4201691 39.5862315,13.730949 39.5244903,14.0502955 C37.3944193,24.8414479 30.1065472,28.5693784 20.799063,28.5693784 L16.0599444,28.5693784 C14.9215912,28.5693784 13.962191,29.3846401 13.7851675,30.4925965 L10.6715786,49.9793978 C10.5562962,50.7070891 11.1245081,51.3624396 11.8682965,51.3624396 L20.2737805,51.3624396 C21.2688749,51.3624396 22.1144397,50.6490261 22.2712045,49.6805161 L22.3536868,49.2593214 L23.9362871,39.3500604 L24.0380636,38.8065526 C24.192899,37.8347111 25.0403933,37.1208217 26.0354876,37.1208217 L27.2924996,37.1208217 C35.4360659,37.1208217 41.811326,33.858823 43.6746558,24.4183494 C44.4526913,20.4748243 44.0499265,17.1818904 41.990279,14.8660331 C41.3670789,14.1678493 40.593867,13.5881711 39.689455,13.1160522" id="Fill-8" fill="#298FC2"></path>
                <path d="M37.4614663,12.239396 C37.135878,12.1456386 36.8001603,12.0609237 36.4557602,11.9842995 C36.1094308,11.9095791 35.7549013,11.8434254 35.38976,11.7853624 C34.1120068,11.5816659 32.711736,11.4850529 31.2121004,11.4850529 L18.5517802,11.4850529 C18.2396978,11.4850529 17.943533,11.5545381 17.6787212,11.6801827 C17.0945917,11.9571717 16.6609563,12.5025833 16.5558033,13.1703078 L13.862344,30.0019165 L13.7851675,30.4925965 C13.962191,29.3846401 14.9215912,28.5693784 16.0599444,28.5693784 L20.799063,28.5693784 C30.1065472,28.5693784 37.3944193,24.8395442 39.5244903,14.0502955 C39.5881609,13.730949 39.6417021,13.4201691 39.689455,13.1160522 C39.1506667,12.8338279 38.5670195,12.5925333 37.9385135,12.3869332 C37.7831958,12.3360091 37.6230546,12.2869887 37.4614663,12.239396" id="Fill-9" fill="#22284F"></path>
                <path d="M16.5558033,13.1703078 C16.6609563,12.5025833 17.0945917,11.9571717 17.6787212,11.6820864 C17.9454624,11.5559659 18.2396978,11.4864807 18.5517802,11.4864807 L31.2121004,11.4864807 C32.711736,11.4864807 34.1120068,11.5835696 35.38976,11.7872661 C35.7549013,11.8448531 36.1094308,11.9114828 36.4557602,11.9862033 C36.8001603,12.0623515 37.135878,12.1475423 37.4614663,12.2408238 C37.6230546,12.2884164 37.7831958,12.3379128 37.9399605,12.3869332 C38.5684666,12.5925333 39.1525961,12.8357317 39.6913844,13.1160522 C40.3251963,9.12826597 39.6860785,6.41310656 37.5010193,3.95447142 C35.0916659,1.24740277 30.7437356,0.0889982135 25.1797933,0.0889982135 L9.02675475,0.0889982135 C7.89033099,0.0889982135 6.92080139,0.904259924 6.74522488,2.01412 L0.0173647094,44.0921898 C-0.115282376,44.9245849 0.535411872,45.6755965 1.38628263,45.6755965 L11.3584493,45.6755965 L16.5558033,13.1703078" id="Fill-11" fill="#28356A"></path>
            </g>
        </g>
    </g>
</svg>