<svg width="24" height="24" viewBox="0 0 24 24" fill="none" xmlns="http://www.w3.org/2000/svg">
<g clip-path="url(#clip0_1_47)">
<path d="M24 12C24 5.37258 18.6274 0 12 0C5.37258 0 0 5.37258 0 12C0 18.6274 5.37258 24 12 24C18.6274 24 24 18.6274 24 12Z" fill="white" fill-opacity="0.1"/>
<path d="M14.8963 10.2695C15.2016 10.4938 15.5356 10.6578 15.8991 10.7581C16.2601 10.8583 16.6266 10.8937 17 10.8553V8.86115C16.2493 8.79078 15.6002 8.49817 15.0616 7.96206C14.5234 7.42594 14.2196 6.76833 14.1298 6.00946C13.9942 5.99326 12.5184 5.99934 12.4543 6.01655C12.4543 6.03882 12.4548 6.06363 12.4543 6.08844C12.4499 8.26631 12.4459 10.4437 12.441 12.6216C12.4405 13.1992 12.441 13.7758 12.4361 14.3529C12.4346 14.4704 12.4178 14.6612 12.3917 14.7751C12.3053 15.1599 12.109 15.4803 11.8146 15.7324C11.3223 16.1541 10.7585 16.3106 10.1297 16.1627C9.20681 15.9451 8.51283 14.9761 8.80976 13.8451C8.92024 13.426 9.18363 13.0665 9.53433 12.8225C9.8934 12.573 10.2895 12.4504 10.7077 12.5097C10.7255 12.5117 10.7437 12.5097 10.7664 12.5097V10.7211C10.6851 10.716 10.6101 10.7074 10.5361 10.709C9.96542 10.716 9.42631 10.8492 8.91827 11.1175C7.56531 11.8338 6.8072 13.3647 7.04248 14.9148C7.19933 15.9511 7.72315 16.7991 8.62874 17.4162C9.23049 17.8268 9.94667 18.0323 10.6678 17.9959C11.9048 17.9341 12.8504 17.3691 13.5079 16.3754C13.9029 15.778 14.1047 15.0672 14.1047 14.3448V12.1366C14.1047 11.2704 14.1047 10.4047 14.1052 9.538C14.1052 9.51066 14.0968 9.47978 14.1195 9.44637C14.335 9.77088 14.591 10.0453 14.8963 10.269V10.2695Z" fill="white"/>
</g>
<defs>
<clipPath id="clip0_1_47">
<rect width="24" height="24" fill="white"/>
</clipPath>
</defs>
</svg>
