<svg width="24" height="24" viewBox="0 0 24 24" fill="none" xmlns="http://www.w3.org/2000/svg">
<g clip-path="url(#clip0_1_50)">
<path d="M24 12C24 5.37258 18.6274 0 12 0C5.37258 0 0 5.37258 0 12C0 18.6274 5.37258 24 12 24C18.6274 24 24 18.6274 24 12Z" fill="white" fill-opacity="0.1"/>
<path d="M10.7806 17.7476V18H12.9721V17.7476V12.6081H14.6065L14.7876 11.3714L14.9177 10.482H12.9726V9.10234C12.9726 8.52092 13.2441 7.95353 14.1154 7.95353H15V6.14347C15 6.14347 14.9301 6.13106 14.8118 6.11326C14.5294 6.07119 13.9709 6 13.4298 6C11.8277 6 10.7806 7.01829 10.7806 8.86179V10.482H9V12.6081H10.7806V17.7476Z" fill="white"/>
</g>
<defs>
<clipPath id="clip0_1_50">
<rect width="24" height="24" fill="white"/>
</clipPath>
</defs>
</svg>
