<?xml version="1.0" encoding="UTF-8"?>
<svg width="42px" height="48px" viewBox="0 0 42 48" version="1.1" xmlns="http://www.w3.org/2000/svg" xmlns:xlink="http://www.w3.org/1999/xlink">
    <!-- Generator: Sketch 52.1 (67048) - http://www.bohemiancoding.com/sketch -->
    <title>locked</title>
    <desc>Created with Sketch.</desc>
    <g id="Health-Hub" stroke="none" stroke-width="1" fill="none" fill-rule="evenodd">
        <g transform="translate(-1070.000000, -1194.000000)" fill="#000000" fill-rule="nonzero" id="Group-6-Copy-2">
            <g transform="translate(776.000000, 926.000000)">
                <g id="locked" transform="translate(294.923077, 268.505929)">
                    <path d="M35.3758741,17.6485613 L35.3758741,12.7233202 C35.3758741,5.70794466 28.6935577,0 20.4807692,0 C12.2679808,0 5.58566434,5.70794466 5.58566434,12.7233202 L5.58566434,17.6485613 C2.4195236,18.1627589 0,20.763581 0,23.8935178 L0,41.0410435 C0,44.5377628 3.01905157,47.3833992 6.72979458,47.3833992 L34.2317439,47.3833992 C37.9424869,47.3833992 40.9615385,44.5377628 40.9615385,41.040166 L40.9615385,23.8926403 C40.9615385,20.763581 38.5420149,18.1627589 35.3758741,17.6485613 Z M7.44755245,12.7233202 C7.44755245,6.674917 13.2938811,1.75494071 20.4807692,1.75494071 C27.6676573,1.75494071 33.513986,6.674917 33.513986,12.7233202 L33.513986,17.5494071 L7.44755245,17.5494071 L7.44755245,12.7233202 Z M39.0996503,41.040166 C39.0996503,43.569913 36.9156556,45.6284585 34.2317439,45.6284585 L6.72979458,45.6284585 C4.04588287,45.6284585 1.86188811,43.569913 1.86188811,41.040166 L1.86188811,23.8926403 C1.86188811,21.3628933 4.04588287,19.3043478 6.72979458,19.3043478 L34.2317439,19.3043478 C36.9156556,19.3043478 39.0996503,21.3628933 39.0996503,23.8926403 L39.0996503,41.040166 Z" id="Shape"></path>
                    <path d="M19.7980769,25.0079051 C17.9155529,25.0079051 16.3846154,26.5258662 16.3846154,28.3924337 L16.3846154,33.4692264 C16.3846154,35.3357939 17.9155529,36.8537549 19.7980769,36.8537549 C21.680601,36.8537549 23.2115385,35.3357939 23.2115385,33.4692264 L23.2115385,28.3924337 C23.2115385,26.5258662 21.680601,25.0079051 19.7980769,25.0079051 Z M21.5048077,33.4692264 C21.5048077,34.4025102 20.7393389,35.1614907 19.7980769,35.1614907 C18.8568149,35.1614907 18.0913462,34.4025102 18.0913462,33.4692264 L18.0913462,28.3924337 C18.0913462,27.4591499 18.8568149,26.7001694 19.7980769,26.7001694 C20.7393389,26.7001694 21.5048077,27.4591499 21.5048077,28.3924337 L21.5048077,33.4692264 Z" id="Shape"></path>
                </g>
            </g>
        </g>
    </g>
</svg>