<svg width="24" height="24" viewBox="0 0 24 24" fill="none" xmlns="http://www.w3.org/2000/svg">
<g clip-path="url(#clip0_1_42)">
<path d="M24 12C24 5.37258 18.6274 0 12 0C5.37258 0 0 5.37258 0 12C0 18.6274 5.37258 24 12 24C18.6274 24 24 18.6274 24 12Z" fill="white" fill-opacity="0.1"/>
<path d="M15 8C14.4478 8 14 8.44777 14 9C14 9.55223 14.4478 10 15 10C15.5522 10 16 9.55223 16 9C16 8.44777 15.5522 8 15 8Z" fill="white"/>
<path d="M12 9C10.3459 9 9 10.3459 9 12C9 13.6541 10.3459 15 12 15C13.6541 15 15 13.6541 15 12C15 10.3459 13.6541 9 12 9ZM12 13.9216C10.9405 13.9216 10.0784 13.0595 10.0784 12C10.0784 10.9405 10.9405 10.0784 12 10.0784C13.0595 10.0784 13.9216 10.9405 13.9216 12C13.9216 13.0595 13.0595 13.9216 12 13.9216Z" fill="white"/>
<path d="M14.3952 18H9.60426C7.61675 18 6 16.3832 6 14.3957V9.60426C6 7.61675 7.61675 6 9.60426 6H14.3952C16.3828 6 18 7.61675 18 9.60426V14.3952C18 16.3828 16.3828 17.9995 14.3952 17.9995V18ZM9.60426 7.12893C8.23926 7.12893 7.12893 8.23926 7.12893 9.60426V14.3952C7.12893 15.7603 8.23926 16.8706 9.60426 16.8706H14.3952C15.7603 16.8706 16.8711 15.7603 16.8711 14.3952V9.60426C16.8711 8.23926 15.7603 7.12893 14.3952 7.12893H9.60426Z" fill="white"/>
</g>
<defs>
<clipPath id="clip0_1_42">
<rect width="24" height="24" fill="white"/>
</clipPath>
</defs>
</svg>
