<?xml version="1.0" encoding="UTF-8"?>
<svg width="25px" height="37px" viewBox="0 0 25 37" version="1.1" xmlns="http://www.w3.org/2000/svg" xmlns:xlink="http://www.w3.org/1999/xlink">
    <!-- Generator: Sketch 50 (54983) - http://www.bohemiancoding.com/sketch -->
    <title>placeholder (1) copy</title>
    <desc>Created with Sketch.</desc>
    <defs></defs>
    <g id="→-Stockist" stroke="none" stroke-width="1" fill="none" fill-rule="evenodd">
        <g id="Search-Result" transform="translate(-650.000000, -341.000000)" fill="#62BD89">
            <path d="M671.121549,345.587097 C668.784452,343.252419 665.678001,341.96371 662.373969,341.96371 C659.065904,341.96371 655.960259,343.252419 653.622356,345.587097 C649.300581,349.912097 648.761872,358.045968 652.460259,362.975806 L662.373969,377.290323 L672.268323,362.995161 C675.982839,358.045968 675.44413,349.912097 671.121549,345.587097 Z M662.486872,358.73871 C659.995743,358.73871 657.969936,356.712903 657.969936,354.221774 C657.969936,351.733065 659.995743,349.707258 662.486872,349.707258 C664.975581,349.707258 667.001388,351.733065 667.001388,354.221774 C667.001388,356.712903 664.975581,358.73871 662.486872,358.73871 Z" id="placeholder-(1)-copy"></path>
        </g>
    </g>
</svg>