<?xml version="1.0" encoding="UTF-8"?>
<svg width="18px" height="23px" viewBox="0 0 18 23" version="1.1" xmlns="http://www.w3.org/2000/svg" xmlns:xlink="http://www.w3.org/1999/xlink">
    <!-- Generator: Sketch 52.1 (67048) - http://www.bohemiancoding.com/sketch -->
    <title>pdf</title>
    <desc>Created with Sketch.</desc>
    <g id="Recipes" stroke="none" stroke-width="1" fill="none" fill-rule="evenodd">
        <g id="Recipes-Single" transform="translate(-1287.000000, -832.000000)" fill="#FFFFFF">
            <g id="Group-Copy" transform="translate(1241.000000, 813.000000)">
                <g id="pdf" transform="translate(46.000000, 19.000000)">
                    <path d="M8.61452038,10 C8.39752038,10 8.34752038,10.0562952 8.31452038,10.0935717 C8.25852038,10.1567136 8.16452038,10.3149486 8.16452038,10.6664131 C8.16452038,11.0559148 8.26652038,11.5123621 8.44352038,12 C8.70552038,11.3777102 8.85452038,10.8109547 8.83352038,10.3621149 C8.81752038,10 8.70452038,10 8.61452038,10 Z" id="Path"></path>
                    <path d="M17.7363,6.24956 L11.8863,0.26956 C11.7171,0.0966 11.4885,0 11.25,0 L1.8,0 C0.8055,0 0,0.8234 0,1.84 L0,21.16 C0,22.1766 0.8055,23 1.8,23 L16.2,23 C17.1945,23 18,22.1766 18,21.16 L18,6.9 C18,6.6562 17.9055,6.42252 17.7363,6.24956 Z M12.1194,19.78 C11.0979,19.78 9.9603,18.72016 8.9775,17.26932 C8.2611,17.29324 7.5807,17.365 6.9561,17.47264 C5.8113,19.38716 4.5135,20.88492 3.5244,20.88492 C2.4372,20.88492 2.07,19.78644 2.07,19.28504 C2.07,17.70908 4.0203,16.77804 6.1749,16.32264 C6.5817,15.61332 6.9759,14.84604 7.3161,14.0852 C6.8148,12.81468 6.5061,11.5736 6.5061,10.65084 C6.5061,10.06572 6.624,9.591 6.8562,9.23772 C7.146,8.79796 7.6131,8.55692 8.1702,8.55692 C8.6589,8.55692 9.0693,8.7676 9.324,9.15124 C9.5292,9.45852 9.6282,9.85412 9.6282,10.36104 C9.6282,11.23044 9.2466,12.59572 8.6535,14.0576 C8.9397,14.72092 9.2745,15.37688 9.63,15.97396 C10.4562,15.97948 11.592,16.05676 12.5181,16.37508 C13.851,16.8314 14.1309,17.58212 14.1309,18.13228 C14.13,18.9244 13.5009,19.78 12.1194,19.78 Z M11.7,7.36 C11.2032,7.36 10.8,6.94784 10.8,6.44 L10.8,1.75168 L16.2864,7.36 L11.7,7.36 Z" id="Shape" fill-rule="nonzero"></path>
                    <path d="M3,19.6286966 C3.00097656,19.6286966 3.05566406,20 3.20996094,20 C3.58105469,19.9704272 4.25585938,19.1763417 5,18 C3.76464844,18.4676889 3,19.0766703 3,19.6286966 Z" id="Path"></path>
                    <path d="M12.3554344,17.2469136 C11.9992281,17.1273148 11.5335385,17.0432099 11,17 C11.495759,17.6080247 11.9807239,18 12.3569764,18 C12.8010778,18 12.9999982,17.8479938 12.9999982,17.6967593 C13.0007693,17.554784 12.7478782,17.378858 12.3554344,17.2469136 Z" id="Path"></path>
                </g>
            </g>
        </g>
    </g>
</svg>