<?xml version="1.0" encoding="UTF-8"?>
<svg width="30px" height="29px" viewBox="0 0 30 29" version="1.1" xmlns="http://www.w3.org/2000/svg" xmlns:xlink="http://www.w3.org/1999/xlink">
    <!-- Generator: Sketch 53.2 (72643) - https://sketchapp.com -->
    <title>Glyphs/Illustration/Education Copy 7</title>
    <desc>Created with Sketch.</desc>
    <g id="Health-Hub-&amp;-Appointments" stroke="none" stroke-width="1" fill="none" fill-rule="evenodd">
        <g id="Appointment-Booking-Step1" transform="translate(-976.000000, -2028.000000)" fill="#62BD89" fill-rule="nonzero">
            <g id="Group-10" transform="translate(976.000000, 2027.000000)">
                <g id="Glyphs/Illustration/Phone" transform="translate(0.000000, -0.000000)">
                    <path d="M10.4703512,13.3876262 L12.4990113,11.7108945 C13.4761796,10.9020441 13.802982,9.51507907 13.2952995,8.33322066 L10.8577413,2.66105383 C10.3106536,1.38743112 8.95163906,0.710128766 7.64635052,1.06068147 L3.00615576,2.30444103 C1.64860387,2.6706885 0.771746923,4.02698329 0.96383076,5.46161073 C2.69536796,18.203247 12.3852609,28.2161364 24.7139896,30.0051197 C26.1041896,30.2031426 27.4158712,29.2972314 27.7698744,27.8965387 L28.9740147,23.0996765 C29.3119572,21.7519418 28.6574293,20.3495651 27.4266126,19.7838601 L21.9370305,17.2648715 C20.7943641,16.7398124 19.4522673,17.0762702 18.6691788,18.0844204 L17.045539,20.1819871 C14.4031997,18.4364901 12.1595418,16.1180436 10.4703512,13.3876262 Z M21.1756236,19.0354284 L26.6651266,21.5543807 C27.0578485,21.7348828 27.2669678,22.1829371 27.1590166,22.613453 L25.9553299,27.4085132 C25.8417192,27.8580341 25.4193133,28.1497682 24.9723789,28.0861069 C13.4745172,26.417685 4.4358048,17.0776822 2.82087581,5.19412892 C2.75928135,4.73408028 3.04165901,4.29730738 3.47837443,4.1794876 L8.11756385,2.93599865 C8.53502911,2.82388288 8.96922939,3.04027856 9.14404166,3.44724232 L11.5816033,9.1194171 C11.7437478,9.49688105 11.6393356,9.94001142 11.3273032,10.1982962 L8.65314579,12.4085452 C8.2891952,12.7093583 8.19434744,13.2407585 8.43050231,13.655942 C10.458873,17.2220176 13.3348377,20.1938479 16.7858786,22.2898309 C17.1876692,22.5338576 17.7019274,22.4358483 17.9930369,22.059766 L20.1324119,19.2959222 C20.3816098,18.9751064 20.810405,18.8676093 21.1756236,19.0354284 Z" id="Path"></path>
                </g>
            </g>
        </g>
    </g>
</svg>