<?xml version="1.0" encoding="UTF-8"?>
<svg width="22px" height="22px" viewBox="0 0 22 22" version="1.1" xmlns="http://www.w3.org/2000/svg" xmlns:xlink="http://www.w3.org/1999/xlink">
    <!-- Generator: Sketch 52.1 (67048) - http://www.bohemiancoding.com/sketch -->
    <title>plus copy</title>
    <desc>Created with Sketch.</desc>
    <g id="Product" stroke="none" stroke-width="1" fill="none" fill-rule="evenodd">
        <g id="Product-Single" transform="translate(-1439.000000, -1640.000000)" fill="#62BD89" fill-rule="nonzero">
            <g id="plus-copy" transform="translate(1439.000000, 1640.000000)">
                <path d="M11,0 C4.92525,0 0,4.92525 0,11 C0,17.07475 4.92525,22 11,22 C17.07475,22 22,17.07475 22,11 C22,4.92525 17.07475,0 11,0 Z M16.5,11.9166667 L11.9166667,11.9166667 L11.9166667,16.5 C11.9166667,17.0069167 11.506,17.4166667 11,17.4166667 C10.494,17.4166667 10.0833333,17.0069167 10.0833333,16.5 L10.0833333,11.9166667 L5.5,11.9166667 C4.994,11.9166667 4.58333333,11.5069167 4.58333333,11 C4.58333333,10.4930833 4.994,10.0833333 5.5,10.0833333 L10.0833333,10.0833333 L10.0833333,5.5 C10.0833333,4.99308333 10.494,4.58333333 11,4.58333333 C11.506,4.58333333 11.9166667,4.99308333 11.9166667,5.5 L11.9166667,10.0833333 L16.5,10.0833333 C17.006,10.0833333 17.4166667,10.4930833 17.4166667,11 C17.4166667,11.5069167 17.006,11.9166667 16.5,11.9166667 Z" id="Shape"></path>
            </g>
        </g>
    </g>
</svg>