<?xml version="1.0" encoding="UTF-8"?>
<svg width="26px" height="30px" viewBox="0 0 26 30" version="1.1" xmlns="http://www.w3.org/2000/svg" xmlns:xlink="http://www.w3.org/1999/xlink">
    <!-- Generator: Sketch 53.2 (72643) - https://sketchapp.com -->
    <title>skype</title>
    <desc>Created with Sketch.</desc>
    <g id="Health-Hub-&amp;-Appointments" stroke="none" stroke-width="1" fill="none" fill-rule="evenodd">
        <g id="Appointment-Booking-Step1" transform="translate(-1214.000000, -2027.000000)" fill="#62BD89" fill-rule="nonzero">
            <g id="Group-11" transform="translate(1214.000000, 2027.000000)">
                <g id="skype">
                    <path d="M19.637277,18.1857644 C19.637277,17.5657244 19.52846,16.9983878 19.310826,16.4837544 C19.093192,15.9691222 18.822545,15.5443944 18.498884,15.2095733 C18.175223,14.8747522 17.767857,14.5709322 17.276786,14.2981156 C16.785714,14.0252978 16.325335,13.8144844 15.895647,13.6656744 C15.46596,13.5168656 14.977679,13.3742556 14.430804,13.2378467 L12.689732,12.7914189 C12.354911,12.7046133 12.109375,12.6395089 11.953125,12.5961067 C11.796875,12.5527033 11.601562,12.4813989 11.367188,12.3821922 C11.132812,12.2829867 10.965402,12.18378 10.864955,12.0845733 C10.764509,11.9853667 10.672433,11.8551589 10.588728,11.6939489 C10.505022,11.5327378 10.46317,11.3467267 10.46317,11.1359122 C10.46317,10.1810511 11.266741,9.70362111 12.873884,9.70362111 C13.353795,9.70362111 13.783482,9.77802556 14.162946,9.92683556 C14.542411,10.0756444 14.84375,10.2523567 15.066964,10.4569689 C15.290179,10.6615822 15.502232,10.8692956 15.703125,11.0801089 C15.904018,11.2909222 16.127232,11.4707344 16.372768,11.6195433 C16.618304,11.7683533 16.886161,11.8427578 17.176339,11.8427578 C17.700893,11.8427578 18.12221,11.6443456 18.44029,11.24752 C18.758371,10.8506944 18.917411,10.3732644 18.917411,9.81522778 C18.917411,9.13318444 18.604911,8.51624556 17.979911,7.96441 C17.354911,7.41257444 16.5625,6.99404778 15.602679,6.70882889 C14.642857,6.42361111 13.627232,6.28100222 12.555804,6.28100222 C11.796875,6.28100222 11.060268,6.37710778 10.345982,6.56932 C9.631696,6.76153222 8.964844,7.05295111 8.345424,7.44357667 C7.726004,7.83420111 7.229353,8.37363556 6.855469,9.06188 C6.481585,9.75012444 6.294643,10.5468756 6.294643,11.4521333 C6.294643,12.2085811 6.40067,12.8689233 6.612723,13.43316 C6.824777,13.9973956 7.137277,14.4655256 7.550223,14.83755 C7.96317,15.2095733 8.409598,15.5102922 8.889509,15.7397078 C9.36942,15.9691222 9.944196,16.1706344 10.613839,16.3442456 L13.058036,17.0138889 C14.0625,17.2867067 14.6875,17.5099211 14.933036,17.6835322 C15.290179,17.9315478 15.46875,18.3035711 15.46875,18.7996033 C15.46875,19.2832344 15.245536,19.68316 14.799107,19.99938 C14.352679,20.3156 13.766741,20.47371 13.041295,20.47371 C12.472098,20.47371 11.961496,20.3745044 11.509487,20.1760911 C11.057478,19.9776789 10.694754,19.7389633 10.421317,19.4599456 C10.147879,19.1809278 9.893973,18.90191 9.659598,18.6228922 C9.425223,18.3438744 9.168527,18.1051589 8.889509,17.9067456 C8.610491,17.7083333 8.309152,17.6091267 7.985491,17.6091267 C7.427455,17.6091267 7.006138,17.7951389 6.72154,18.1671622 C6.436942,18.5391867 6.294643,19.0042167 6.294643,19.5622522 C6.294643,20.7031244 6.975446,21.6796878 8.337054,22.49194 C9.698661,23.3041911 11.322545,23.7103178 13.208705,23.7103178 C14.023438,23.7103178 14.804688,23.59561 15.552455,23.3661956 C16.300223,23.1367811 16.983817,22.80506 17.603237,22.3710322 C18.222656,21.9370044 18.716518,21.3572667 19.084821,20.63182 C19.453125,19.9063744 19.637277,19.0910222 19.637277,18.1857644 Z M25.714286,22.2222222 C25.714286,24.1939489 25.086496,25.8773567 23.830915,27.2724456 C22.575335,28.6675344 21.060268,29.3650789 19.285714,29.3650789 C17.834821,29.3650789 16.529018,28.8690478 15.368304,27.8769844 C14.508929,28.0753967 13.671875,28.1746033 12.857143,28.1746033 C11.261161,28.1746033 9.734933,27.8304811 8.27846,27.1422367 C6.821987,26.4539933 5.566406,25.5239333 4.511719,24.3520589 C3.457031,23.1801833 2.619978,21.7850944 2.000558,20.1667911 C1.381138,18.5484867 1.071429,16.8526789 1.071429,15.0793656 C1.071429,14.1741067 1.160714,13.2440478 1.339286,12.2891867 C0.446429,10.9995044 0,9.54861111 0,7.93650778 C0,5.96478222 0.62779,4.28137444 1.883371,2.88628444 C3.138951,1.49119556 4.654018,0.793651111 6.428571,0.793651111 C7.879464,0.793651111 9.185268,1.28968222 10.345982,2.28174556 C11.205357,2.08333333 12.042411,1.98412667 12.857143,1.98412667 C14.453125,1.98412667 15.979353,2.32824889 17.435826,3.01649333 C18.892299,3.70473667 20.147879,4.63479667 21.202567,5.80667111 C22.257254,6.97854667 23.094308,8.37363556 23.713728,9.99194 C24.333147,11.6102433 24.642857,13.3060511 24.642857,15.0793656 C24.642857,15.9846233 24.553571,16.9146822 24.375,17.8695433 C25.267857,19.1592267 25.714286,20.6101189 25.714286,22.2222222 Z" id="Shape"></path>
                </g>
            </g>
        </g>
    </g>
</svg>