<?xml version="1.0" encoding="UTF-8"?>
<svg width="50px" height="30px" viewBox="0 0 50 30" version="1.1" xmlns="http://www.w3.org/2000/svg" xmlns:xlink="http://www.w3.org/1999/xlink">
    <!-- Generator: Sketch 53.2 (72643) - https://sketchapp.com -->
    <title>smile</title>
    <desc>Created with Sketch.</desc>
    <g id="Health-Hub-&amp;-Appointments" stroke="none" stroke-width="1" fill="none" fill-rule="evenodd">
        <g id="Appointment-Booking-Step1" transform="translate(-736.000000, -2027.000000)" fill="#62BD89" fill-rule="nonzero">
            <g id="Group" transform="translate(736.000000, 2027.000000)">
                <g id="smile">
                    <path d="M10.7070172,11.4887349 C10.5209916,11.3027094 10.2639944,11.1956522 10,11.1956522 C9.7370052,11.1956522 9.47890844,11.3027094 9.29298281,11.4887349 C9.10695722,11.6746606 9,11.9326574 9,12.1956522 C9,12.4597465 9.10705718,12.7167437 9.29298281,12.903669 C9.4790084,13.0896946 9.7370052,13.1956522 10,13.1956522 C10.2629948,13.1956522 10.5210916,13.0896946 10.7070172,12.903669 C10.8930428,12.7166438 11,12.4597465 11,12.1956522 C11,11.9326574 10.8930428,11.6746606 10.7070172,11.4887349 Z" id="Path"></path>
                    <path d="M19.7070172,11.4887349 C19.5210916,11.3027094 19.2630948,11.1956522 19,11.1956522 C18.7370052,11.1956522 18.4789084,11.3027094 18.2929828,11.4887349 C18.1069572,11.6746606 18,11.9326574 18,12.1956522 C18,12.4597465 18.1069572,12.7167437 18.2929828,12.903669 C18.4790084,13.0896946 18.7370052,13.1956522 19,13.1956522 C19.2629948,13.1956522 19.5210916,13.0896946 19.7070172,12.903669 C19.8930428,12.7166438 20,12.458647 20,12.1956522 C20,11.9326574 19.8930428,11.6746606 19.7070172,11.4887349 Z" id="Path"></path>
                    <path d="M18.2286861,17.2257787 C17.674168,17.1003801 17.1045872,17.3788877 16.9563487,17.8468963 C16.6593522,18.7853687 15.6493149,19.440949 14.4999729,19.440949 C13.3507347,19.440949 12.3406974,18.7853687 12.0435971,17.8468963 C11.8954624,17.3787123 11.3258816,17.1002047 10.7712596,17.2257787 C10.2167416,17.3509142 9.88733417,17.831638 10.0354688,18.2998219 C10.575028,20.0048041 12.4109211,21.1956522 14.5000767,21.1956522 C16.5891285,21.1956522 18.4250216,20.0048041 18.9645808,18.2998219 C19.1126115,17.8317257 18.7831003,17.3508265 18.2286861,17.2257787 Z" id="Path"></path>
                    <path d="M49.5056366,10.9413163 C47.4419659,3.22048558 39.4972437,-1.37763149 31.7955878,0.691320504 C29.1522299,1.40136635 26.8169773,2.8131368 24.9929549,4.76803896 C22.2638548,1.85423717 18.4869038,0.203989993 14.4601482,0.203989993 C6.48681281,0.203989993 0,6.70688605 0,14.69987 C0,22.692854 6.48681281,29.1956522 14.4601482,29.1956522 C18.4907124,29.1956522 22.2737181,27.5403144 25.0037947,24.619464 C27.7071135,27.4928344 31.5195138,29.1906594 35.5414842,29.1906594 C36.7767374,29.1906594 38.0322055,29.0304023 39.2807399,28.6951056 C46.9823958,26.6262515 51.5693073,18.6618534 49.5056366,10.9413163 Z M14.4601482,27.2367362 C7.56415596,27.2367362 1.95400282,21.6126602 1.95400282,14.6997721 C1.95400282,7.78688408 7.56415596,2.16280803 14.4601482,2.16280803 C18.0299705,2.16280803 21.373328,3.66248985 23.7460806,6.30208258 C23.486901,6.66958735 23.2425652,7.05050399 23.0152216,7.44512618 C21.0839727,10.7983869 20.5709847,14.7048628 21.5706912,18.4448161 C22.0293823,20.1612415 22.778796,21.7230878 23.7515493,23.0918816 C21.3783085,25.7349007 18.03124,27.2367362 14.4601482,27.2367362 Z M38.7749785,26.8029553 C32.1141423,28.5916286 25.2429547,24.6152544 23.4581901,17.9380041 C22.5936398,14.7033943 23.0372919,11.3247783 24.7075058,8.42477994 C25.0157088,7.88967577 25.3589703,7.38296168 25.7338724,6.90649772 C25.7500834,6.88779942 25.7651224,6.86841585 25.7797709,6.84873858 C27.4330903,4.7730317 29.6940265,3.28382484 32.3012516,2.58347079 C33.3814268,2.29340243 34.4665824,2.15487839 35.5352342,2.15487839 C41.0563249,2.15487839 46.1226307,5.85391081 47.6179423,11.4483241 C49.4029023,18.1256723 45.4358146,25.0136946 38.7749785,26.8029553 Z" id="Shape"></path>
                    <path d="M31.9680575,12.5849638 C31.6801003,11.5868224 30.5716137,10.9921519 29.4961455,11.2597795 C28.4211423,11.5273208 27.7809583,12.5568107 28.0690085,13.5549521 C28.1804338,13.9409784 28.556378,14.1956522 28.9672937,14.1956522 C29.0469098,14.1956522 29.1281071,14.1860663 29.2086533,14.1659446 C29.7051377,14.0423643 29.9996986,13.5687696 29.8666021,13.1077834 C29.8441868,13.03006 29.8940399,12.9497458 29.9777484,12.9289332 C30.0296476,12.916152 30.0713159,12.9297967 30.0970795,12.9435279 C30.1227501,12.9573454 30.1564195,12.9839441 30.1703709,13.0321326 C30.3033744,13.4930325 30.8134382,13.7667053 31.3100157,13.6430387 C31.8065931,13.5196311 32.101061,13.0459501 31.9680575,12.5849638 Z" id="Path"></path>
                    <path d="M41.9680689,10.5852194 C41.8284845,10.1017701 41.4946351,9.69775874 41.0278039,9.44744269 C40.5609727,9.19729933 40.0171422,9.13072683 39.4965603,9.26033166 C38.9758854,9.38985014 38.5406723,9.69983104 38.2712679,10.1332862 C38.0017705,10.5667414 37.9300719,11.0716044 38.0696563,11.5551401 C38.1810635,11.9411052 38.5569463,12.1956522 38.9677949,12.1956522 C39.047398,12.1955658 39.128582,12.1860678 39.2092081,12.1659493 C39.7055184,12.0423886 40.0000313,11.5687827 39.8670495,11.1078696 C39.8531933,11.0596887 39.8678864,11.0210922 39.8827655,10.9971745 C39.8976446,10.9732567 39.9261938,10.942086 39.9781776,10.9292205 C40.0300684,10.916355 40.0718228,10.9300839 40.0974893,10.9438129 C40.1231557,10.9575418 40.1567266,10.9841363 40.1706758,11.0324035 C40.3036575,11.4932303 40.8136381,11.7667733 41.3101345,11.6432127 C41.8065379,11.5197384 42.1010507,11.0461325 41.9680689,10.5852194 Z" id="Path"></path>
                    <path d="M40.844152,16.906084 C40.6954023,16.3949966 40.1251429,16.0915234 39.5703718,16.2285604 C39.0154968,16.3655973 38.686397,16.8907619 38.8350429,17.4019451 C39.1888822,18.6186147 38.4023069,19.8737811 37.0816461,20.1997586 C36.4417415,20.3577676 35.773563,20.2765605 35.2000812,19.9715552 C34.6263916,19.6663583 34.2161084,19.1738489 34.0448019,18.5844273 C33.8960521,18.0733399 33.3258967,17.7696752 32.7710217,17.9069995 C32.2162506,18.0440364 31.8870469,18.5692968 32.0356927,19.0803842 C32.3509674,20.1642305 33.1054228,21.0700532 34.1601843,21.6310332 C34.8626657,22.0047006 35.6424844,22.1956522 36.432594,22.1956522 C36.8287403,22.1956522 37.2273813,22.1477706 37.6202012,22.0506669 C40.0485331,21.4511902 41.4947633,19.1432048 40.844152,16.906084 Z" id="Path"></path>
                </g>
            </g>
        </g>
    </g>
</svg>