<?xml version="1.0" encoding="UTF-8"?>
<svg width="42px" height="42px" viewBox="0 0 42 42" version="1.1" xmlns="http://www.w3.org/2000/svg" xmlns:xlink="http://www.w3.org/1999/xlink">
    <!-- Generator: Sketch 53.2 (72643) - https://sketchapp.com -->
    <title>Glyphs/Illustration/Half</title>
    <desc>Created with Sketch.</desc>
    <g id="Health-Hub-&amp;-Appointments" stroke="none" stroke-width="1" fill="none" fill-rule="evenodd">
        <g id="Appointment" transform="translate(-640.000000, -3255.000000)" fill="#62BD89">
            <g id="pricing-section" transform="translate(81.000000, 2877.000000)">
                <g id="pricing" transform="translate(433.000000, 80.000000)">
                    <g id="pricing-01-copy-2" transform="translate(0.000000, 193.000000)">
                        <g id="Group-3" transform="translate(106.000000, 85.240768)">
                            <g id="Glyphs/Illustration/Half" transform="translate(17.078652, 17.330921)">
                                <path d="M22.4708958,31.2892708 L22.4699167,31.2892708 L22.4699167,23.5 L22.4699167,18.6335417 C22.21925,18.6325625 21.9695625,18.5366042 21.778625,18.3456667 C21.39675,17.9628125 21.3977292,17.343 21.7805833,16.961125 L22.7558333,15.9888125 C22.7558333,15.9878333 22.7568125,15.9878333 22.7568125,15.9868542 C22.7577917,15.985875 22.7587708,15.985875 22.75975,15.9848958 C22.8498333,15.8957917 22.9565625,15.8252917 23.0750417,15.7763333 C23.1807917,15.7322708 23.2924167,15.7146458 23.4050208,15.70975 C23.4206875,15.7087708 23.4324375,15.7009375 23.4481042,15.7009375 C23.4549583,15.7009375 23.4608333,15.7048542 23.4676875,15.7048542 C23.588125,15.7077917 23.7085625,15.7293333 23.8221458,15.7763333 C23.9435625,15.8262708 24.05225,15.8987292 24.1433125,15.9897917 L25.1166042,16.9621042 C25.4994583,17.3439792 25.4994583,17.9637917 25.1166042,18.3466458 C24.9266458,18.5366042 24.6779375,18.6315833 24.42825,18.6325625 L24.42825,23.5 L24.42825,31.29025 C24.6779375,31.2912292 24.9266458,31.3862083 25.1166042,31.5761667 C25.4994583,31.9590208 25.4994583,32.5788333 25.1166042,32.9607083 L24.1433125,33.9330208 C24.05225,34.0240833 23.9445417,34.0965417 23.823125,34.1464792 C23.7036667,34.1964167 23.576375,34.221875 23.4490833,34.221875 C23.3217917,34.221875 23.1945,34.1964167 23.0750417,34.1464792 C22.9575417,34.0975208 22.8508125,34.0270208 22.7607292,33.9379167 C22.75975,33.9369375 22.7587708,33.9369375 22.7577917,33.9359583 C22.7577917,33.9349792 22.7568125,33.9349792 22.7568125,33.934 L21.7815625,32.9616875 C21.3987083,32.5798125 21.3977292,31.96 21.7796042,31.5771458 C21.9705417,31.3862083 22.2212083,31.29025 22.4708958,31.2892708 Z M44.0625,23.5 C44.0625,23.6635208 44.0115833,23.8123542 43.9401042,23.9484583 C43.8245625,29.2467292 41.6850833,34.0495417 38.258,37.6235 C38.2129583,37.7752708 38.1453958,37.9201875 38.0259375,38.0396458 C37.9055,38.1600833 37.758625,38.228625 37.605875,38.2736667 C34.022125,41.6929167 29.2085417,43.8265208 23.8965625,43.9410833 C23.7604583,44.0125625 23.6135833,44.0625 23.4500625,44.0625 C23.2865417,44.0625 23.1396667,44.0125625 23.0045417,43.9420625 C17.6935417,43.8284792 12.7144792,41.730125 8.94566667,37.9711042 C5.07110417,34.1053542 2.9375,28.9657083 2.9375,23.4990208 C2.9375,12.3639375 11.9007917,3.29685417 23.0045417,3.05695833 C23.1406458,2.9874375 23.2865417,2.9375 23.4500625,2.9375 C23.6135833,2.9375 23.7604583,2.9874375 23.8955833,3.0579375 C29.2065833,3.1725 34.0201667,5.30610417 37.6048958,8.72535417 C37.758625,8.77039583 37.9055,8.8389375 38.0259375,8.96035417 C38.1453958,9.0798125 38.2139375,9.2266875 38.258,9.37747917 C41.6850833,12.9533958 43.8245625,17.75425 43.9401042,23.0515417 C44.0115833,23.1876458 44.0625,23.3355 44.0625,23.5 Z M4.89583333,23.4990208 C4.89583333,28.440875 6.82479167,33.088 10.3292292,36.583625 C13.600625,39.8471875 17.8835,41.7193542 22.4708958,41.9563125 L22.4708958,38.1855417 C22.4708958,37.6440625 22.9095625,37.206375 23.4500625,37.206375 C23.9905625,37.206375 24.4292292,37.6440625 24.4292292,38.1855417 L24.4292292,41.9543542 C28.8041458,41.7252292 32.7756458,39.98525 35.8365208,37.2377083 L33.1692708,34.5773125 C32.7854375,34.1954375 32.7854375,33.575625 33.1673125,33.1927708 C33.5501667,32.8079583 34.169,32.8099167 34.5518542,33.1908125 L37.2230208,35.855125 C39.9783958,32.8030625 41.72425,28.8423333 41.9543542,24.4781875 L38.1737917,24.4781875 C37.6323125,24.4781875 37.194625,24.0405 37.194625,23.4990208 C37.194625,22.9575417 37.6323125,22.5198542 38.1737917,22.5198542 L41.9543542,22.5198542 C41.7232708,18.1557083 39.9774167,14.1959583 37.2220417,11.1438958 L34.5518542,13.8072292 C34.3609167,13.9971875 34.1112292,14.0931458 33.8605625,14.0931458 C33.6089167,14.0931458 33.35825,13.9971875 33.1673125,13.8052708 C32.7854375,13.4224167 32.7854375,12.8026042 33.1692708,12.4207292 L35.8355417,9.7613125 C32.7746667,7.01377083 28.805125,5.2728125 24.4292292,5.04270833 L24.4292292,8.8125 C24.4292292,9.35397917 23.9905625,9.79166667 23.4500625,9.79166667 C22.9095625,9.79166667 22.4708958,9.35397917 22.4708958,8.8125 L22.4708958,5.04270833 C12.695875,5.55579167 4.89583333,13.6251042 4.89583333,23.4990208 Z" id="Combined-Shape"></path>
                            </g>
                        </g>
                    </g>
                </g>
            </g>
        </g>
    </g>
</svg>