<?xml version="1.0" encoding="UTF-8"?>
<svg width="40px" height="33px" viewBox="0 0 40 33" version="1.1" xmlns="http://www.w3.org/2000/svg" xmlns:xlink="http://www.w3.org/1999/xlink">
    <!-- Generator: Sketch 53.2 (72643) - https://sketchapp.com -->
    <title>Glyphs/Illustration/Half</title>
    <desc>Created with Sketch.</desc>
    <g id="Health-Hub-&amp;-Appointments" stroke="none" stroke-width="1" fill="none" fill-rule="evenodd">
        <g id="Appointment" transform="translate(-1234.000000, -3261.000000)" fill="#62BD89">
            <g id="pricing-section" transform="translate(81.000000, 2877.000000)">
                <g id="pricing" transform="translate(433.000000, 80.000000)">
                    <g id="pricing-01-copy-3" transform="translate(600.000000, 193.000000)">
                        <g id="Group-3" transform="translate(100.000000, 85.240768)">
                            <g id="Glyphs/Illustration/chat" transform="translate(17.078652, 17.330921)">
                                <path d="M12.6794434,38.9591675 C11.6610718,38.9591675 11.1016846,38.2993774 11.1016846,37.1949463 L11.1016846,33.5661011 L9.33746338,33.5661011 C5.78033447,33.5661011 3.45672607,31.4432983 3.45672607,27.7570801 L3.45672607,15.1923828 C3.45672607,11.4918213 5.79467773,9.35467529 9.38049316,9.35467529 L28.9160156,9.35467529 C32.6452637,9.35467529 34.8254395,11.4918213 34.8254395,15.1923828 L34.8254395,16.1677246 L37.0343018,16.1677246 C40.4910278,16.1677246 42.7572632,18.2474976 42.7572632,21.8189697 L42.7572632,29.9229126 C42.7572632,33.4800415 40.5053711,35.5311279 37.0773315,35.5311279 L36.4892578,35.5311279 L36.4892578,38.7296753 C36.4892578,39.8197632 35.9298706,40.5082397 34.9401855,40.5082397 C34.2373657,40.5082397 33.7640381,40.1496582 32.9034424,39.4038086 L28.3709717,35.5311279 L23.7094116,35.5311279 C21.8017578,35.5311279 20.3244019,34.9573975 19.3347168,33.9103394 L14.8596191,37.9121094 C13.9559937,38.7009888 13.425293,38.9591675 12.6794434,38.9591675 Z M13.2818604,32.519043 L13.2818604,36.3630371 L18.2159424,31.7875366 C18.0581665,31.2281494 17.9864502,30.6113892 17.9864502,29.9229126 L17.9864502,21.8189697 C17.9864502,18.2474976 20.1092529,16.1677246 23.7094116,16.1677246 L32.4731445,16.1677246 L32.4731445,15.3358154 C32.4731445,12.8544312 31.0818481,11.5635376 28.71521,11.5635376 L9.58129883,11.5635376 C7.21466064,11.5635376 5.82336426,12.8544312 5.82336426,15.3358154 L5.82336426,27.5849609 C5.82336426,30.052002 7.21466064,31.3572388 9.58129883,31.3572388 L12.1774292,31.3572388 C12.8085327,31.3572388 13.2818604,31.7158203 13.2818604,32.519043 Z M34.3234253,37.8977661 L34.3234253,34.4697266 C34.3234253,33.6808472 34.7967529,33.3222656 35.4135132,33.3222656 L36.8621826,33.3222656 C39.0853882,33.3222656 40.4049683,32.1030884 40.4049683,29.7651367 L40.4049683,21.9480591 C40.4049683,19.5957642 39.0853882,18.3765869 36.8621826,18.3765869 L23.8815308,18.3765869 C21.6583252,18.3765869 20.3387451,19.5957642 20.3387451,21.9480591 L20.3387451,29.7651367 C20.3387451,32.1174316 21.6583252,33.3222656 23.8815308,33.3222656 L28.2992554,33.3222656 C29.0881348,33.3222656 29.432373,33.4943848 30.0061035,34.0107422 L34.3234253,37.8977661 Z" id="􀒤"></path>
                            </g>
                        </g>
                    </g>
                </g>
            </g>
        </g>
    </g>
</svg>