<?xml version="1.0" encoding="UTF-8"?>
<svg width="53px" height="60px" viewBox="0 0 53 60" version="1.1" xmlns="http://www.w3.org/2000/svg" xmlns:xlink="http://www.w3.org/1999/xlink">
    <!-- Generator: Sketch 53.2 (72643) - https://sketchapp.com -->
    <title>Glyphs/Illustration/Education Copy 7</title>
    <desc>Created with Sketch.</desc>
    <g id="Health-Hub-&amp;-Appointments" stroke="none" stroke-width="1" fill="none" fill-rule="evenodd">
        <g id="Appointment-Booking-Step-2" transform="translate(-1061.000000, -973.000000)" fill="#62BD89">
            <g id="Group-2" transform="translate(396.000000, 943.000000)">
                <g id="Glyphs/Illustration/Education" transform="translate(662.000000, 30.000000)">
                    <path d="M7.5,9.375 L15,9.375 C16.0355339,9.375 16.875,10.2144661 16.875,11.25 C16.875,12.2855339 16.0355339,13.125 15,13.125 L7.5,13.125 L7.5,18.75 L11.25,18.75 C12.2855339,18.75 13.125,19.5894661 13.125,20.625 C13.125,21.6605339 12.2855339,22.5 11.25,22.5 L7.5,22.5 L7.5,28.125 L15,28.125 C16.0355339,28.125 16.875,28.9644661 16.875,30 C16.875,31.0355339 16.0355339,31.875 15,31.875 L7.5,31.875 L7.5,37.5 L11.25,37.5 C12.2855339,37.5 13.125,38.3394661 13.125,39.375 C13.125,40.4105339 12.2855339,41.25 11.25,41.25 L7.5,41.25 L7.5,46.875 L15,46.875 C16.0355339,46.875 16.875,47.7144661 16.875,48.75 C16.875,49.7855339 16.0355339,50.625 15,50.625 L7.5,50.625 L7.5,56.25 L24.375,56.25 L24.375,3.75 L7.5,3.75 L7.5,9.375 Z M3.75,1.875 C3.75,0.839466094 4.58946609,0 5.625,0 L26.25,0 C27.2855339,0 28.125,0.839466094 28.125,1.875 L28.125,58.125 C28.125,59.1605339 27.2855339,60 26.25,60 L5.625,60 C4.58946609,60 3.75,59.1605339 3.75,58.125 L3.75,1.875 Z" id="Combined-Shape" fill-rule="nonzero"></path>
                    <g id="Group" stroke-width="1" fill-rule="evenodd" transform="translate(37.500000, 0.000000)">
                        <rect id="Rectangle" x="0" y="0" width="17.8125" height="6.6796875"></rect>
                        <polygon id="Rectangle" transform="translate(9.176377, 51.481065) rotate(45.000000) translate(-9.176377, -51.481065) " points="14.7427836 45.9146586 14.7427836 57.0474711 3.60997108 57.0474711"></polygon>
                        <rect id="Rectangle" x="0" y="11.1328125" width="6.6796875" height="35.625"></rect>
                        <rect id="Rectangle-Copy" x="11.1328125" y="11.1328125" width="6.6796875" height="35.625"></rect>
                    </g>
                </g>
            </g>
        </g>
    </g>
</svg>