<?xml version="1.0" encoding="UTF-8"?>
<svg width="66px" height="44px" viewBox="0 0 66 44" version="1.1" xmlns="http://www.w3.org/2000/svg" xmlns:xlink="http://www.w3.org/1999/xlink">
    <!-- Generator: Sketch 53.2 (72643) - https://sketchapp.com -->
    <title>Glyphs/Illustration/Half</title>
    <desc>Created with Sketch.</desc>
    <g id="Health-Hub-&amp;-Appointments" stroke="none" stroke-width="1" fill="none" fill-rule="evenodd">
        <g id="Appointment" transform="translate(-928.000000, -3251.000000)" fill="#62BD89" stroke="#62BD89">
            <g id="pricing-section" transform="translate(81.000000, 2877.000000)">
                <g id="pricing" transform="translate(433.000000, 80.000000)">
                    <g id="pricing-01-copy-4" transform="translate(301.000000, 166.000000)">
                        <g id="Group-3" transform="translate(89.000000, 89.240768)">
                            <g id="Glyphs/Illustration/Hand" transform="translate(23.000000, 26.759232)">
                                <g id="noun_hand-shake_821752" transform="translate(0.000000, 12.937500)">
                                    <path d="M58.6203068,24.8085348 L66.5127094,18.7097312 L52.6397523,0.23618297 L44.7496467,6.33576355 L45.0283462,6.70635327 L29.5107558,6.70635327 C28.4878367,6.70635327 26.0017452,6.93243631 24.614373,8.86851513 L22.1527825,7.72100774 L23.1925461,6.33498663 L15.3024405,0.235406052 L1.43101478,18.7097312 L9.32341731,24.8085348 L10.8363575,22.7947643 L12.6318255,24.1862238 L12.3967685,24.514083 C11.7742885,25.3718001 11.5177931,26.4229697 11.6755186,27.4733624 C11.8286502,28.496563 12.3600169,29.3915721 13.1677861,29.9944602 C13.817064,30.4808107 14.5919099,30.7371935 15.4058044,30.7371935 C15.6645968,30.7371935 15.9187952,30.69524 16.169931,30.6439634 C15.8575426,32.1084532 16.3682365,33.676273 17.611665,34.6070204 C18.260943,35.0910401 19.0327262,35.3481999 19.8466207,35.3481999 C20.2171992,35.3481999 20.5770584,35.2775004 20.9269641,35.1733934 C20.8917438,35.4996988 20.8825559,35.8298888 20.9292611,36.1608557 C21.0747361,37.2019254 21.6068684,38.1140267 22.4299507,38.7285686 C23.0799944,39.2125883 23.851012,39.4681942 24.6649064,39.4681942 C25.5936495,39.4681942 26.4879381,39.1263505 27.1885151,38.5250162 C27.3630852,39.4472175 27.8485123,40.3033807 28.641734,40.8961689 C29.2940746,41.3832963 30.0681548,41.640456 30.8820493,41.640456 C31.6630204,41.640456 32.4034117,41.3778578 33.0396735,40.9443378 L33.7119212,41.4345728 C34.3872315,41.9302463 35.1789219,42.188183 35.993582,42.188183 C36.2041379,42.188183 36.4177565,42.1710908 36.6298438,42.1361295 C37.6374497,41.9683153 38.5179564,41.4182576 39.1044504,40.5869557 C39.6289261,39.8504377 39.8356538,38.9849514 39.7866517,38.1334497 L39.8769993,38.2010415 C40.5729824,38.7052611 41.3761576,38.9484363 42.167848,38.9484363 C43.3630401,38.9484363 44.5337312,38.3929402 45.2725911,37.3464321 C45.8598508,36.507361 46.0566249,35.507468 45.9211034,34.5526362 C46.372076,34.7266657 46.839893,34.8237804 47.3084757,34.8237804 C48.5036678,34.8237804 49.6758902,34.2690612 50.4162815,33.2217762 C51.0288079,32.3508515 51.2286446,31.3012357 51.0579029,30.3129965 C51.4139338,30.4155496 51.7776214,30.4738184 52.1405433,30.4738184 C53.3357354,30.4738184 54.5048951,29.9175454 55.2445208,28.8725911 C55.8402027,28.0296355 56.0699001,26.9955581 55.8915018,25.9599268 C55.7506207,25.1534863 55.3723856,24.4309529 54.8126897,23.8599184 L56.7735398,22.3488135 L58.6203068,24.8085348 Z M52.3809599,2.17847713 L64.5970331,18.447133 L58.8783336,22.8677945 L46.6645574,6.59836172 L52.3809599,2.17847713 Z M9.06462491,22.8685714 L3.3459254,18.4479099 L15.5619986,2.17925405 L21.2784011,6.59913863 L9.06462491,22.8685714 Z M13.9763209,28.8795834 C13.4617987,28.4950091 13.1233779,27.9216439 13.024608,27.2651485 C12.9220099,26.5799071 13.089689,25.8954426 13.499316,25.3314004 L14.7488698,23.580228 C15.2304687,22.9167403 15.997658,22.5220662 16.8015989,22.5220662 C17.3222463,22.5220662 17.81533,22.6859958 18.229551,22.9928783 C18.7448388,23.3766756 19.0832597,23.9515947 19.1820296,24.6096439 C19.2830964,25.2933315 19.116183,25.9777959 18.7073216,26.5418381 L18.6001295,26.6917833 L17.3490443,28.4149866 C16.5251963,29.3962336 14.9900521,29.6363012 13.9763209,28.8795834 Z M18.4201999,33.4905897 C17.3291372,32.6748262 17.1132217,31.0829219 17.936304,29.9439606 L18.4607797,29.2214272 C18.4914061,29.1818044 18.5327516,29.1522815 18.5618466,29.1111049 L19.7371316,27.4617087 L21.5027389,25.0268487 C21.9828065,24.3664687 22.7484645,23.9717945 23.5516397,23.9717945 C24.0715215,23.9717945 24.5646052,24.1341703 24.9795918,24.4441605 C26.0691232,25.2575932 26.2881013,26.8432822 25.4711443,27.9830204 L24.5638395,29.2330809 L21.8993498,32.90324 C21.1045968,33.9948093 19.469917,34.2744996 18.4201999,33.4905897 Z M23.2392512,37.6098072 C22.7147755,37.2205714 22.3748234,36.6355524 22.2798818,35.9658494 C22.1864715,35.290708 22.3549163,34.6171203 22.7530584,34.0678395 L25.8654581,29.7738156 L26.5660352,28.8096608 C26.5668008,28.808107 26.5668008,28.8065531 26.5698635,28.8042224 L28.2206221,26.5262998 C28.7006897,25.8651429 29.4663476,25.4720225 30.2718198,25.4720225 C30.7924673,25.4720225 31.2870823,25.6343983 31.6990063,25.9428346 C32.2234821,26.3344011 32.5626685,26.9170894 32.6560788,27.5852386 C32.7494891,28.26038 32.5810443,28.9347445 32.1829022,29.4855792 L30.2679916,32.1247685 C30.2373652,32.1643913 30.1983167,32.1939141 30.1692217,32.2350908 L27.8699507,35.4181224 C27.8531063,35.4406531 27.8431527,35.4678452 27.8270739,35.4911527 L26.7145728,37.026342 C25.9244138,38.1163575 24.2882027,38.3968248 23.2392512,37.6098072 Z M29.4510345,39.7805151 C28.3814103,38.9826207 28.1609008,37.4381084 28.9334497,36.3022548 L31.3575229,32.9584011 C31.8406531,32.3601745 32.5603716,31.9981309 33.32067,31.9981309 C33.8390204,31.9981309 34.3313385,32.1605067 34.7432625,32.4673892 C35.8366221,33.2862604 36.0556003,34.8758339 35.2286897,36.0147952 L32.9294187,39.19705 C32.1415567,40.2878424 30.5099395,40.5714173 29.4510345,39.7805151 Z M37.9965433,39.7766305 C37.6206052,40.3088191 37.0555496,40.6607628 36.4093343,40.7679775 C35.7309613,40.8736383 35.0656045,40.7174778 34.5097368,40.310373 L34.0587643,39.980183 L36.3297058,36.8352203 C36.5303082,36.5594145 36.6765489,36.261855 36.7975229,35.9573033 L37.8503026,36.7225672 C38.5593019,37.5973765 38.6565405,38.847437 37.9965433,39.7766305 Z M54.133551,28.0630429 C53.3464546,29.1794736 51.780684,29.4234258 50.6452132,28.5967854 L46.1875524,25.3710232 L44.5880929,24.2087544 L44.5857959,24.212639 L42.6731823,22.8281717 L41.8814919,23.9570331 L45.5275552,26.5954455 L48.6813005,28.8904602 C49.812943,29.713216 50.0908768,31.2965742 49.3037804,32.4137818 C48.5128557,33.5317664 46.9486165,33.7695032 45.814677,32.9483012 L42.1640197,30.3129965 L42.1640197,30.3129965 L39.0462604,28.0405123 L38.2492104,29.166266 L43.5353132,33.0190007 C44.6654243,33.8394258 44.9441239,35.4196763 44.1593244,36.5399916 C43.3714624,37.6571992 41.8064574,37.8957129 40.670221,37.0721802 L38.7935932,35.7071358 C38.6075384,35.4965911 38.400045,35.3015848 38.1657537,35.1275552 L37.0746911,34.3358761 C37.0333455,33.1891457 36.5211203,32.0758227 35.5517973,31.3486277 C34.816,30.8024546 33.90257,30.6020099 33.0075158,30.6820324 L33.2808557,30.3044504 C33.8933821,29.4614947 34.1521745,28.4266404 34.0074652,27.392563 C33.8627558,26.3507164 33.3298578,25.439392 32.5067755,24.825627 C30.9080816,23.6330584 28.4694609,24.0129711 27.2191414,25.5939986 C27.0261956,24.712974 26.5514877,23.8964335 25.787361,23.3269529 C24.1748853,22.1242843 21.7033413,22.5166277 20.4645067,24.1365011 C20.26467,23.2251766 19.7746488,22.4257284 19.0365545,21.8748937 C17.3949838,20.655133 14.8706094,21.0731147 13.644791,22.7621337 L13.4319381,23.0628008 L11.6617368,21.693095 L21.3036678,8.85064602 L23.792822,10.011361 L22.3870739,12.0010471 C21.7645939,12.8579873 21.5080985,13.9076031 21.6665897,14.9595496 C21.8212526,15.9827502 22.351088,16.8785362 23.1565602,17.4767628 C23.9635637,18.0812048 24.963513,18.3305954 25.9734159,18.1759887 C27.0101168,18.0174975 27.9227811,17.4596707 28.5483237,16.5996228 L30.6339761,13.6760816 L34.1138916,13.663651 C34.5840056,16.4395778 37.1880084,18.9039606 39.8188093,18.9039606 L45.7205011,18.9039606 L53.5141337,24.5381675 C54.0623448,24.9382801 54.4275637,25.5264068 54.5439437,26.1961098 C54.6587924,26.8627051 54.5133174,27.5261928 54.133551,28.0630429 Z M53.7017199,22.9734553 L46.1584574,17.5187164 L39.8195749,17.5187164 C37.6910457,17.5187164 35.5066235,15.2508937 35.4093849,12.9403406 L35.3795243,12.2752991 L29.9364616,12.2939451 L27.4465419,15.7823054 C27.0415088,16.3401323 26.4458269,16.7029529 25.7712822,16.8047291 C25.1212386,16.9065053 24.4834455,16.7480141 23.9666263,16.3595552 C23.4536355,15.9780887 23.1175116,15.4055004 23.0172104,14.7513357 C22.9146122,14.0660943 23.0815257,13.3816298 23.4919184,12.8160338 L25.6380577,9.77673188 C26.6778213,8.21357354 28.8660718,8.09237438 29.5115215,8.09237438 L46.0696411,8.09237438 L55.9450978,21.2440366 L53.7017199,22.9734553 Z" id="Shape" stroke-width="0.4" fill-rule="nonzero"></path>
                                </g>
                            </g>
                        </g>
                    </g>
                </g>
            </g>
        </g>
    </g>
</svg>