<?xml version="1.0" encoding="UTF-8"?>
<svg width="60px" height="60px" viewBox="0 0 60 60" version="1.1" xmlns="http://www.w3.org/2000/svg" xmlns:xlink="http://www.w3.org/1999/xlink">
    <!-- Generator: Sketch 53.2 (72643) - https://sketchapp.com -->
    <title>Shape</title>
    <desc>Created with Sketch.</desc>
    <g id="Health-Hub-&amp;-Appointments" stroke="none" stroke-width="1" fill="none" fill-rule="evenodd">
        <g id="Appointment-Booking-Step-2" transform="translate(-674.000000, -974.000000)" fill="#62BD89" fill-rule="nonzero">
            <g id="Group-2" transform="translate(396.000000, 943.000000)">
                <g id="leaf" transform="translate(278.000000, 31.000000)">
                    <path d="M58.0700684,19.1633606 C59.9780274,9.62448117 60,2.07458496 60,1.7578125 C60,1.29180914 59.8150635,0.844573945 59.4850159,0.514984102 C59.1554261,0.185394258 58.7086487,0 58.2421875,0 C57.9254151,0 50.3755189,0.0219726562 40.8366394,1.92993164 C37.4382019,2.60925293 34.2182923,3.44604492 31.2043763,4.42749023 C31.1837768,4.43344113 31.1640931,4.44030762 31.1439515,4.4471741 C29.1929626,5.08438113 27.3280335,5.7824707 25.560608,6.53961188 C23.3990479,7.46612555 21.3784791,8.48281863 19.50531,9.5846557 C19.4485475,9.61486816 19.393158,9.64782715 19.3400574,9.68399051 C16.3348389,11.4678955 13.7113953,13.4724427 11.5040589,15.679779 C7.12097171,20.0628662 4.7071839,25.88974 4.7071839,32.0878601 C4.7071839,37.6963806 6.68380737,43.000946 10.3070069,47.2068786 L0.514984131,56.9993591 C-0.171661377,57.6860046 -0.171661377,58.7988281 0.514984131,59.4850159 C0.858306943,59.8283386 1.30783081,60 1.75781253,60 C2.20779425,60 2.65777597,59.8283386 3.00064093,59.4850159 L12.7931214,49.6929932 C16.9985963,53.3157349 22.3031616,55.2923584 27.9116822,55.2923584 C34.1102601,55.2923584 39.9371338,52.8790283 44.320221,48.496399 C46.5280151,46.2886048 48.5321045,43.6647034 50.3160095,40.6594849 C50.3521729,40.6063842 50.3851319,40.5509948 50.4153443,40.4942321 C51.5171814,38.6206055 52.5338745,36.6004944 53.4599304,34.439392 C54.2184448,32.6696777 54.9169922,30.8029174 55.5551147,28.8496399 C55.560608,28.8331604 55.566101,28.8162232 55.5711365,28.7997436 C56.5530396,25.7844544 57.3902894,22.5631713 58.0700684,19.1633606 L58.0700684,19.1633606 Z M41.4582825,5.390625 C47.9896546,4.07958984 53.6608887,3.6849975 56.4335632,3.5664368 C56.3150025,6.33956906 55.9204102,12.0108033 54.609375,18.5417175 C54.1168213,20.9953308 53.4599304,23.7217712 52.5915528,26.5388489 L35.9463502,26.5393066 L46.171875,16.3142395 C46.8580628,15.627594 46.8580628,14.5143128 46.171875,13.828125 C45.4852295,13.1414795 44.372406,13.1414795 43.6857605,13.828125 L33.4611511,24.0531921 L33.4611511,7.40844727 C36.2782288,6.54006961 39.0046692,5.88317871 41.4582825,5.390625 L41.4582825,5.390625 Z M47.8335572,37.9129029 L24.5727539,37.9129029 L32.4307252,30.0549316 L51.4064026,30.0544739 C50.4299928,32.7081299 49.2530823,35.3759766 47.8335572,37.9129029 L47.8335572,37.9129029 Z M29.9455261,8.59359738 L29.9455261,27.5683594 L22.0870971,35.4263306 L22.0866394,12.1664428 C24.6240235,10.7469177 27.2914124,9.57000727 29.9455261,8.59359738 Z M8.2228089,32.0878601 C8.2228089,26.829071 10.2708435,21.8847656 13.9897156,18.1658936 C15.3909303,16.764679 16.9340515,15.5003357 18.5710144,14.3595886 L18.57193,38.9419556 L12.8022767,44.7120667 C9.83779913,41.1767578 8.2228089,36.7565918 8.2228089,32.0878601 L8.2228089,32.0878601 Z M41.8345642,46.0107422 C38.1156921,49.7291565 33.170929,51.7767334 27.9116822,51.7767334 C23.2434082,51.7767334 18.8232422,50.1617432 15.2879333,47.1977234 L21.0571289,41.4285279 L45.6408692,41.4285279 C44.5001221,43.0659485 43.2357788,44.6090698 41.8345642,46.0107422 L41.8345642,46.0107422 Z" id="Shape"></path>
                </g>
            </g>
        </g>
    </g>
</svg>