<?xml version="1.0" encoding="UTF-8"?>
<svg width="54px" height="54px" viewBox="0 0 54 54" version="1.1" xmlns="http://www.w3.org/2000/svg" xmlns:xlink="http://www.w3.org/1999/xlink">
    <!-- Generator: Sketch 53.2 (72643) - https://sketchapp.com -->
    <title>Glyphs/Illustration/Education Copy 10</title>
    <desc>Created with Sketch.</desc>
    <g id="Health-Hub-&amp;-Appointments" stroke="none" stroke-width="1" fill="none" fill-rule="evenodd">
        <g id="Appointment-Booking-Step-2" transform="translate(-1441.000000, -977.000000)" fill="#62BD89" fill-rule="nonzero">
            <g id="Group-2" transform="translate(396.000000, 943.000000)">
                <g id="Glyphs/Illustration/Smile" transform="translate(1042.000000, 31.000000)">
                    <path d="M30,56.25 C15.5025253,56.25 3.75,44.4974747 3.75,30 C3.75,15.5025253 15.5025253,3.75 30,3.75 C44.4974747,3.75 56.25,15.5025253 56.25,30 C56.25,44.4974747 44.4974747,56.25 30,56.25 Z M30,52.96875 C42.6852903,52.96875 52.96875,42.6852903 52.96875,30 C52.96875,17.3147097 42.6852903,7.03125 30,7.03125 C17.3147097,7.03125 7.03125,17.3147097 7.03125,30 C7.03125,42.6852903 17.3147097,52.96875 30,52.96875 Z M20.15625,30 C18.3440657,30 16.875,28.5309343 16.875,26.71875 C16.875,24.9065657 18.3440657,23.4375 20.15625,23.4375 C21.9684343,23.4375 23.4375,24.9065657 23.4375,26.71875 C23.4375,28.5309343 21.9684343,30 20.15625,30 Z M34.921875,28.359375 C34.0157828,28.359375 33.28125,27.6248422 33.28125,26.71875 C33.28125,25.8126578 34.0157828,25.078125 34.921875,25.078125 L41.484375,25.078125 C42.3904672,25.078125 43.125,25.8126578 43.125,26.71875 C43.125,27.6248422 42.3904672,28.359375 41.484375,28.359375 L34.921875,28.359375 Z M37.109375,39.0252624 C37.5614132,38.2399826 38.5644577,37.9698368 39.3497376,38.421875 C40.1350174,38.8739132 40.4051632,39.8769577 39.953125,40.6622376 C37.9035746,44.2227126 34.1082405,46.4171997 30,46.4171997 C25.8917595,46.4171997 22.0964254,44.2227126 20.046875,40.6622376 C19.5948368,39.8769577 19.8649826,38.8739132 20.6502624,38.421875 C21.4355423,37.9698368 22.4385868,38.2399826 22.890625,39.0252624 C24.3545896,41.5684589 27.0655425,43.1359497 30,43.1359497 C32.9344575,43.1359497 35.6454104,41.5684589 37.109375,39.0252624 Z" id="Combined-Shape"></path>
                </g>
            </g>
        </g>
    </g>
</svg>